<?xml version="1.0" encoding="UTF-8"?> <svg xmlns="http://www.w3.org/2000/svg" viewBox="0 0 281.63 109.11"><defs><style>.cls-1{fill:#fff;}.cls-2,.cls-6{fill:#0075a0;}.cls-3{fill:#cce1ee;}.cls-4{fill:#1d1d1b;}.cls-5{fill:none;}.cls-6{stroke:#fff;stroke-width:1.4px;}.cls-7{fill:#e30613;}.cls-8{fill:#f8d200;}</style></defs><g id="Ebene_2" data-name="Ebene 2"><g id="Ebene_2-2" data-name="Ebene 2"><path class="cls-1" d="M277.86,54.93a51.15,51.15,0,0,1-50,51.21V3.7A51.16,51.16,0,0,1,277.86,54.93Z"></path><rect class="cls-2" y="9.71" width="217.15" height="66.71"></rect><rect class="cls-3" y="76.41" width="220.15" height="25.69"></rect><path class="cls-1" d="M19.9,38.2l-1.44-4H13l-1.46,4,1.68.28c.2.05.31.13.31.25a2.15,2.15,0,0,1-.25.66H8.64a.64.64,0,0,1,0-.2c0-.43.25-.7.75-.82l.62-.13,5.35-14L16.72,24,22,38.22l1,.26c.21.06.31.14.31.25a3,3,0,0,1-.24.66H18.33a1.23,1.23,0,0,1,0-.2c0-.41.25-.68.75-.79ZM13.4,33H18l-2.27-6.46h0Z"></path><path class="cls-1" d="M25.34,38.24V24.74l-1.61-.22a.55.55,0,0,1,0-.18c0-.41.27-.64.81-.68l2.6-.27V38.24l1.32.29c.21,0,.31.14.31.28a.92.92,0,0,1-.22.58H23.86a1,1,0,0,1,0-.16c0-.33.23-.58.68-.72Z"></path><path class="cls-1" d="M31.48,38.24V24.74l-1.6-.22a.57.57,0,0,1,0-.18c0-.41.27-.64.82-.68l2.6-.27V38.24l1.32.29c.21,0,.31.14.31.28a1,1,0,0,1-.22.58H30a.47.47,0,0,1,0-.16c0-.33.22-.58.68-.72Z"></path><path class="cls-1" d="M37.74,38.24V30l-1.61-.22a.88.88,0,0,1,0-.17c0-.41.27-.64.82-.69l2.59-.26v9.56l1.33.29c.2,0,.31.14.31.28a1,1,0,0,1-.22.58H36.26a1,1,0,0,1,0-.16c0-.33.23-.58.69-.72ZM37.37,25a1.23,1.23,0,0,1,1.25-1.28,1.27,1.27,0,0,1,.92.36,1.36,1.36,0,0,1,0,1.84,1.34,1.34,0,0,1-.92.34,1.25,1.25,0,0,1-.9-.34A1.21,1.21,0,0,1,37.37,25Z"></path><path class="cls-1" d="M48.21,32.54a4,4,0,0,0-.45-2.14,1.62,1.62,0,0,0-1.49-.68,3.62,3.62,0,0,0-1.3.22,7.38,7.38,0,0,0-.51,1.94l-.46,0c-.72,0-1.08-.32-1.08-.95a2,2,0,0,1,1.14-1.7,4.76,4.76,0,0,1,2.54-.7q3.39,0,3.39,3.72V37.1c0,.83.26,1.25.77,1.25a1.06,1.06,0,0,0,.79-.28,1,1,0,0,1,.2.61c0,.16-.13.34-.39.53a2.27,2.27,0,0,1-1.33.38,1.53,1.53,0,0,1-1.69-1.52h-.05a3.38,3.38,0,0,1-3,1.58,2.78,2.78,0,0,1-1.16-5.31,7.37,7.37,0,0,1,3.5-.75h.6ZM46,38.26a2.87,2.87,0,0,0,2.21-1.14V34.58l-.6.05c-2.13.16-3.19.83-3.19,2S44.94,38.26,46,38.26Z"></path><path class="cls-1" d="M54.18,38.24V30l-1.61-.22a.47.47,0,0,1,0-.17q0-.61.81-.69l2.6-.26-.13,1.48h.06a7.28,7.28,0,0,1,1.28-1,4.74,4.74,0,0,1,2.36-.57,3.15,3.15,0,0,1,2.51,1,4.29,4.29,0,0,1,.9,2.91v5.75l1.33.29c.2,0,.31.14.31.28a.93.93,0,0,1-.23.58H59.68a1,1,0,0,1,0-.16c0-.33.23-.58.68-.72l.82-.27V32.6a2.59,2.59,0,0,0-.75-2A2.41,2.41,0,0,0,58.78,30,4.15,4.15,0,0,0,56,31.1v7.14l1.32.29c.21,0,.31.14.31.28a.92.92,0,0,1-.22.58H52.7a1,1,0,0,1,0-.16c0-.33.23-.58.68-.72Z"></path><path class="cls-1" d="M66,31a21.6,21.6,0,0,1,.15-2.18h7.16a1,1,0,0,1,.09.44,1.43,1.43,0,0,1-.24.75l-5.51,8.24v0H72l.79-2.21.33,0c.41,0,.62.23.62.68,0,.15-.1,1-.31,2.65H65.87a1.59,1.59,0,0,1-.22-.82,1.42,1.42,0,0,1,.22-.66l5.31-8v-.05H67.59L67,31.72a1.52,1.52,0,0,1-.28,0C66.24,31.74,66,31.49,66,31Z"></path><path class="cls-1" d="M81.61,28.81V28.7a6,6,0,0,1,1.18-3.92,3.17,3.17,0,0,1,2.54-1.3c.88,0,1.32.35,1.32,1a1.13,1.13,0,0,1-.37.81,2.9,2.9,0,0,0-1.44-.4,1.34,1.34,0,0,0-1.13.43,2.53,2.53,0,0,0-.32,1.45v2h3L86.14,30H83.39v8.28l1.54.29c.21,0,.31.14.31.28a.92.92,0,0,1-.22.58H80.13a.47.47,0,0,1,0-.16c0-.33.22-.58.68-.72l.82-.27V30H79.93a1,1,0,0,1,0-.16c0-.36.23-.61.68-.72Z"></path><path class="cls-1" d="M88.59,30,87,29.8a.88.88,0,0,1,0-.17q0-.61.81-.69l2.6-.26V35.6c0,1.72.74,2.58,2.21,2.58a3.61,3.61,0,0,0,2.73-1.08V30L93.7,29.8a.88.88,0,0,1,0-.17q0-.61.81-.69l2.6-.26v9.5l1.61.22a.5.5,0,0,1,0,.17q0,.61-.81.69l-2.47.26V38.07h0a4.1,4.1,0,0,1-3.33,1.58q-3.48,0-3.48-3.94Zm2.29-3.12a1.06,1.06,0,0,1-.77-.31,1.1,1.1,0,0,1-.31-.82,1.06,1.06,0,0,1,.31-.81,1.11,1.11,0,0,1,1.54,0,1.06,1.06,0,0,1,.31.81,1.1,1.1,0,0,1-.31.82A1.06,1.06,0,0,1,90.88,26.9Zm3.75,0a1.1,1.1,0,0,1-.78-.31,1.13,1.13,0,0,1-.3-.82,1.09,1.09,0,0,1,.3-.81,1.12,1.12,0,0,1,1.55,0,1.1,1.1,0,0,1,.31.81,1.14,1.14,0,0,1-.31.82A1.09,1.09,0,0,1,94.63,26.9Z"></path><path class="cls-1" d="M101.43,38.24V30l-1.6-.22a.47.47,0,0,1,0-.17c0-.41.27-.64.82-.69l2.6-.26-.13,1.85h.06c.87-1.32,1.8-2,2.8-2s1.48.36,1.48,1.08a1.49,1.49,0,0,1-.36.92,3.81,3.81,0,0,0-1.45-.33,2.81,2.81,0,0,0-2.4,1.26v6.76l1.54.29c.21,0,.31.14.31.28a.92.92,0,0,1-.22.58H100a.47.47,0,0,1,0-.16c0-.33.22-.58.68-.72Z"></path><path class="cls-1" d="M17.27,61.46A6.33,6.33,0,0,0,19.72,61l.68-2.93a1.36,1.36,0,0,1,.51-.09c.4,0,.59.33.59,1l-.11,2.38a6.89,6.89,0,0,1-4.51,1.44,6.6,6.6,0,0,1-4.74-1.72Q10,59,10,55a7.76,7.76,0,0,1,2.4-6.06,7.1,7.1,0,0,1,5-1.88,8.08,8.08,0,0,1,4.14,1c.07,1.05.11,1.83.11,2.31,0,.65-.22,1-.66,1a1.36,1.36,0,0,1-.48-.09L20,49a4.9,4.9,0,0,0-2.62-.71,4.87,4.87,0,0,0-3.72,1.5A7,7,0,0,0,12,54.77a7.51,7.51,0,0,0,1.54,5.13A4.72,4.72,0,0,0,17.27,61.46Z"></path><path class="cls-1" d="M26.84,52c.17,0,.26.07.26.22a1.21,1.21,0,0,1-.15.48L25.69,53l2.73,7.6h.07l2.8-7.6-1.61-.35a.77.77,0,0,1,0-.18c0-.35.2-.52.61-.52h3.29c.17,0,.26.07.26.22a1.1,1.1,0,0,1-.16.48l-1,.4L29,62.61q-1.74,4.58-4.45,4.58c-.88,0-1.32-.36-1.32-1.1a1.59,1.59,0,0,1,.22-.81,3,3,0,0,0,.93.15c1.45,0,2.55-.85,3.3-2.56l-4-9.87-1-.35c0-.09,0-.15,0-.18,0-.35.21-.52.62-.52Z"></path><path class="cls-1" d="M35.47,47.87l-1.61-.22a1.1,1.1,0,0,1,0-.18c0-.41.27-.64.82-.68l2.6-.26V53.2h.06a4,4,0,0,1,3.26-1.52,3.6,3.6,0,0,1,2.82,1.17A5.87,5.87,0,0,1,44.66,57,5.35,5.35,0,0,1,39,62.79,6.92,6.92,0,0,1,35.47,62Zm4.28,5.29a3.08,3.08,0,0,0-2.49,1.06v6.67a3.69,3.69,0,0,0,2.18.64c2.24,0,3.37-1.44,3.37-4.32A4.67,4.67,0,0,0,41.88,54,2.75,2.75,0,0,0,39.75,53.16Z"></path><path class="cls-1" d="M48.49,57.17a5.06,5.06,0,0,0,.92,3.18,3,3,0,0,0,2.5,1.11,4.18,4.18,0,0,0,2.71-1,.86.86,0,0,1,.28.64c0,.34-.33.69-1,1.06a5.49,5.49,0,0,1-2.75.66A4.23,4.23,0,0,1,48,61.55a5.69,5.69,0,0,1-1.36-4.12A6.24,6.24,0,0,1,48,53.11a4.19,4.19,0,0,1,3.22-1.43,3.49,3.49,0,0,1,2.68,1,3.77,3.77,0,0,1,.91,2.66,8.35,8.35,0,0,1-.24,1.79ZM51,52.83c-1.49,0-2.32,1.09-2.52,3.28h4.34a3.49,3.49,0,0,0,.11-.93C53,53.61,52.32,52.83,51,52.83Z"></path><path class="cls-1" d="M58.14,61.38V53.16l-1.61-.22a1.1,1.1,0,0,1,0-.18c0-.41.27-.64.82-.68l2.6-.27-.14,1.86h.07c.87-1.33,1.8-2,2.8-2s1.47.36,1.47,1.08a1.5,1.5,0,0,1-.35.93,3.81,3.81,0,0,0-1.45-.33,2.8,2.8,0,0,0-2.4,1.25v6.77l1.54.28c.2.05.31.14.31.29a1,1,0,0,1-.22.57H56.67a.49.49,0,0,1,0-.15c0-.34.23-.58.69-.73Z"></path><path class="cls-1" d="M70.94,56.44H65v-1.3h6Z"></path><path class="cls-1" d="M79.78,48.86a4.5,4.5,0,0,0-2.21-.61,2.9,2.9,0,0,0-2,.64,2.33,2.33,0,0,0-.73,1.8,2.26,2.26,0,0,0,.6,1.61,6,6,0,0,0,1.25.84l2.07,1.14A8.29,8.29,0,0,1,81,55.93a3.54,3.54,0,0,1,.88,2.45,4.09,4.09,0,0,1-1.27,3.15,5,5,0,0,1-3.59,1.26,8.76,8.76,0,0,1-3.71-.89c-.07-.8-.11-1.63-.11-2.46,0-.65.23-1,.69-1a1.14,1.14,0,0,1,.48.11l.53,2.33a3.93,3.93,0,0,0,2.34.71,3,3,0,0,0,2.2-.79,2.65,2.65,0,0,0,.7-1.92,2.31,2.31,0,0,0-.72-1.72,13.84,13.84,0,0,0-2.25-1.43L75.81,55a6.1,6.1,0,0,1-1.87-1.48,3.9,3.9,0,0,1-.77-2.45,3.64,3.64,0,0,1,1.34-3,5.11,5.11,0,0,1,3.35-1.06,7,7,0,0,1,3.39.82c.06,1.06.09,1.76.09,2.09,0,.65-.22,1-.66,1a1.36,1.36,0,0,1-.48-.09Z"></path><path class="cls-1" d="M85.11,61.38V53.16l-1.61-.22a1.1,1.1,0,0,1,0-.18c0-.41.27-.64.81-.68l2.6-.27v9.57l1.33.28c.2.05.3.14.3.29a.91.91,0,0,1-.22.57H83.63a1,1,0,0,1,0-.15c0-.34.23-.58.68-.73Zm-.38-13.25a1.23,1.23,0,0,1,.37-.92,1.21,1.21,0,0,1,.89-.35,1.26,1.26,0,0,1,.92.35,1.22,1.22,0,0,1,.36.92,1.21,1.21,0,0,1-.36.92,1.29,1.29,0,0,1-.92.34,1.2,1.2,0,0,1-1.26-1.26Z"></path><path class="cls-1" d="M97.69,60.45a.88.88,0,0,1,.31.62c0,.35-.3.7-.88,1.06a5,5,0,0,1-2.65.66,4.2,4.2,0,0,1-3.3-1.37,5.84,5.84,0,0,1-1.28-4.05,5.66,5.66,0,0,1,1.59-4.23,5.13,5.13,0,0,1,3.76-1.46,3.73,3.73,0,0,1,2.32.62,1.41,1.41,0,0,1,.59,1.1,1.1,1.1,0,0,1-.9,1.19,2.63,2.63,0,0,0-2.47-1.7,2.59,2.59,0,0,0-2.07.93,4.69,4.69,0,0,0-.9,3.08q0,4.56,3.37,4.56A3.21,3.21,0,0,0,97.69,60.45Z"></path><path class="cls-1" d="M100.86,61.38V47.87l-1.61-.22a1.1,1.1,0,0,1,0-.18c0-.41.27-.64.82-.68l2.6-.26v6.74h.06a4.12,4.12,0,0,1,3.37-1.59q3.56,0,3.55,4v5.75l1.32.28c.21.05.31.14.31.29a.91.91,0,0,1-.22.57h-4.67a.44.44,0,0,1,0-.15c0-.34.23-.58.68-.73l.82-.26V55.74c0-1.72-.8-2.58-2.38-2.58a3.74,3.74,0,0,0-2.82,1.14v7.08l1.32.28c.2.05.31.14.31.29a1,1,0,0,1-.22.57H99.39a.49.49,0,0,1,0-.15c0-.34.23-.58.69-.73Z"></path><path class="cls-1" d="M114.43,57.17a5.06,5.06,0,0,0,.92,3.18,3,3,0,0,0,2.5,1.11,4.18,4.18,0,0,0,2.71-1,.82.82,0,0,1,.28.64c0,.34-.33.69-1,1.06a5.49,5.49,0,0,1-2.75.66,4.23,4.23,0,0,1-3.2-1.24,5.69,5.69,0,0,1-1.36-4.12A6.24,6.24,0,0,1,114,53.11a4.19,4.19,0,0,1,3.22-1.43,3.52,3.52,0,0,1,2.69,1,3.81,3.81,0,0,1,.9,2.66,8.35,8.35,0,0,1-.24,1.79ZM117,52.83c-1.49,0-2.32,1.09-2.51,3.28h4.34a4,4,0,0,0,.11-.93C118.91,53.61,118.26,52.83,117,52.83Z"></path><path class="cls-1" d="M124.08,61.38V53.16l-1.6-.22a.57.57,0,0,1,0-.18c0-.41.27-.64.82-.68l2.6-.27-.13,1.86h.06c.87-1.33,1.8-2,2.8-2s1.48.36,1.48,1.08a1.52,1.52,0,0,1-.36.93,3.81,3.81,0,0,0-1.45-.33,2.8,2.8,0,0,0-2.4,1.25v6.77l1.54.28c.21.05.31.14.31.29a.91.91,0,0,1-.22.57h-4.89a.44.44,0,0,1,0-.15c0-.34.22-.58.68-.73Z"></path><path class="cls-1" d="M132.37,61.38V47.87l-1.61-.22a.55.55,0,0,1,0-.18c0-.41.27-.64.81-.68l2.6-.26v6.74h.07a4.1,4.1,0,0,1,3.37-1.59c2.36,0,3.55,1.32,3.55,4v5.75l1.32.28c.2.05.31.14.31.29a1,1,0,0,1-.22.57h-4.67a.49.49,0,0,1,0-.15c0-.34.23-.58.69-.73l.81-.26V55.74c0-1.72-.79-2.58-2.38-2.58a3.77,3.77,0,0,0-2.82,1.14v7.08l1.32.28c.21.05.31.14.31.29a.91.91,0,0,1-.22.57h-4.67a1,1,0,0,1,0-.15c0-.34.23-.58.68-.73Z"></path><path class="cls-1" d="M145.94,57.17a5.06,5.06,0,0,0,.91,3.18,3,3,0,0,0,2.5,1.11,4.16,4.16,0,0,0,2.71-1,.86.86,0,0,1,.29.64c0,.34-.33.69-1,1.06a5.53,5.53,0,0,1-2.76.66,4.2,4.2,0,0,1-3.19-1.24A5.69,5.69,0,0,1,144,57.43a6.19,6.19,0,0,1,1.44-4.32,4.16,4.16,0,0,1,3.21-1.43,3.51,3.51,0,0,1,2.69,1,3.81,3.81,0,0,1,.9,2.66,8.35,8.35,0,0,1-.24,1.79Zm2.53-4.34c-1.48,0-2.32,1.09-2.51,3.28h4.34a4,4,0,0,0,.11-.93C150.41,53.61,149.76,52.83,148.47,52.83Z"></path><path class="cls-1" d="M155.59,61.38V53.16L154,52.94a.55.55,0,0,1,0-.18c0-.41.27-.64.81-.68l2.6-.27v9.57l1.33.28c.2.05.3.14.3.29a.91.91,0,0,1-.22.57h-4.67a1,1,0,0,1,0-.15c0-.34.23-.58.68-.73Zm-.38-13.25a1.19,1.19,0,0,1,.37-.92,1.21,1.21,0,0,1,.89-.35,1.22,1.22,0,0,1,.91.35,1.19,1.19,0,0,1,.37.92,1.18,1.18,0,0,1-.37.92,1.25,1.25,0,0,1-.91.34,1.2,1.2,0,0,1-1.26-1.26Z"></path><path class="cls-1" d="M161.63,52l.41-3h1.28v3h3.31l-.22,1.14h-3.09v6.79c0,1.08.48,1.63,1.43,1.63a3,3,0,0,0,1.83-.55,1.12,1.12,0,0,1,.16.64q0,.28-.6.66a3.66,3.66,0,0,1-2,.53,2.26,2.26,0,0,1-2.58-2.54V53.09h-1.68a1,1,0,0,1,0-.15c0-.37.23-.61.68-.73Z"></path><path class="cls-4" d="M70.63,84.2H67V94.7H65.52V84.2H61.88V83h8.86Z"></path><path class="cls-4" d="M76.62,89.53c0,.28,0,.53,0,.75s-.07.44-.11.63H71.72a3.26,3.26,0,0,0,.73,2.1,2.28,2.28,0,0,0,1.75.67,3.63,3.63,0,0,0,.85-.09,3.87,3.87,0,0,0,.63-.21,2.58,2.58,0,0,0,.42-.25l.25-.21.4,1a2.78,2.78,0,0,1-.29.27,2.37,2.37,0,0,1-.51.34,4.19,4.19,0,0,1-.79.28,4.49,4.49,0,0,1-1.11.12,3.57,3.57,0,0,1-2.72-1.06,4.73,4.73,0,0,1-1-3.33,5.51,5.51,0,0,1,.28-1.86,3.71,3.71,0,0,1,.79-1.3,3.2,3.2,0,0,1,1.13-.77,3.53,3.53,0,0,1,1.33-.25,2.55,2.55,0,0,1,2,.82A3.45,3.45,0,0,1,76.62,89.53Zm-2.86-2a1.81,1.81,0,0,0-1.41.6,2.89,2.89,0,0,0-.63,1.73h3.57a1.57,1.57,0,0,0,0-.28V89.3A1.91,1.91,0,0,0,74.91,88,1.46,1.46,0,0,0,73.76,87.51Z"></path><path class="cls-4" d="M80.48,83.6a.93.93,0,0,1-.29.71,1,1,0,0,1-.7.26,1,1,0,0,1-.69-.26,1,1,0,0,1-.28-.71.94.94,0,0,1,1-1,1,1,0,0,1,.7.27A.94.94,0,0,1,80.48,83.6Zm-.31,11.1H78.79V86.54h1.38Z"></path><path class="cls-4" d="M84.06,92.7a1.28,1.28,0,0,0,.19.8.74.74,0,0,0,.6.22,1.23,1.23,0,0,0,.36,0,.56.56,0,0,0,.21-.07l.09,1-.35.15a2.25,2.25,0,0,1-.77.11,2.33,2.33,0,0,1-.73-.11,1.13,1.13,0,0,1-.52-.34,1.68,1.68,0,0,1-.33-.64,3.63,3.63,0,0,1-.12-1V82.68l1.37-.15Z"></path><path class="cls-4" d="M92.21,94.7V89.87a3.11,3.11,0,0,0-.39-1.74,1.39,1.39,0,0,0-1.25-.57,2.45,2.45,0,0,0-.74.1,3.1,3.1,0,0,0-.61.22,2.12,2.12,0,0,0-.46.29c-.13.1-.24.2-.33.28V94.7H87.06V86.54h1.27v.92h0a2.75,2.75,0,0,1,.34-.32,2.79,2.79,0,0,1,.52-.37,3.48,3.48,0,0,1,.73-.3,3.12,3.12,0,0,1,1-.13,2.49,2.49,0,0,1,2,.81,3.89,3.89,0,0,1,.68,2.5v5Z"></path><path class="cls-4" d="M101.9,89.53a5.54,5.54,0,0,1-.05.75,3.74,3.74,0,0,1-.11.63H97a3.32,3.32,0,0,0,.72,2.1,2.31,2.31,0,0,0,1.76.67,3.49,3.49,0,0,0,.84-.09,3.31,3.31,0,0,0,.63-.21,2.33,2.33,0,0,0,.43-.25l.25-.21.4,1c-.07.07-.16.16-.29.27a2.65,2.65,0,0,1-.51.34,4.21,4.21,0,0,1-1.9.4,3.55,3.55,0,0,1-2.72-1.06,4.73,4.73,0,0,1-1-3.33,5.5,5.5,0,0,1,.29-1.86,3.85,3.85,0,0,1,.78-1.3,3.24,3.24,0,0,1,1.14-.77,3.53,3.53,0,0,1,1.33-.25,2.55,2.55,0,0,1,2,.82A3.5,3.5,0,0,1,101.9,89.53Zm-2.86-2a1.81,1.81,0,0,0-1.41.6A2.89,2.89,0,0,0,97,89.84h3.57a1.49,1.49,0,0,0,0-.28V89.3a1.91,1.91,0,0,0-.41-1.33A1.46,1.46,0,0,0,99,87.51Z"></path><path class="cls-4" d="M109.22,94.7V89.87a3.12,3.12,0,0,0-.38-1.74,1.39,1.39,0,0,0-1.25-.57,2.57,2.57,0,0,0-.75.1,3.25,3.25,0,0,0-.6.22,1.9,1.9,0,0,0-.46.29c-.13.1-.24.2-.33.28V94.7h-1.38v-12l1.38-.15v4.85h0a4.5,4.5,0,0,1,.38-.34,3.12,3.12,0,0,1,.52-.34,3.33,3.33,0,0,1,.68-.26,3.2,3.2,0,0,1,.85-.1,2.47,2.47,0,0,1,2,.81,3.83,3.83,0,0,1,.69,2.5v5Z"></path><path class="cls-4" d="M118,94.7V89.87a3.39,3.39,0,0,0-.35-1.76,1.23,1.23,0,0,0-1.12-.55,3.09,3.09,0,0,0-1.37.32,3.36,3.36,0,0,0-.44.29c-.12.11-.22.2-.29.28V94.7h-1.38V86.54h1.27v.92h0a3.68,3.68,0,0,1,.34-.33,3.18,3.18,0,0,1,.52-.38,4,4,0,0,1,.72-.29,3.26,3.26,0,0,1,.92-.12,2.54,2.54,0,0,1,1.25.3,2.1,2.1,0,0,1,.84.9,3.8,3.8,0,0,1,.4-.38,3.16,3.16,0,0,1,.57-.39,3.48,3.48,0,0,1,.73-.3,2.84,2.84,0,0,1,.9-.13,2.62,2.62,0,0,1,2.06.81,3.77,3.77,0,0,1,.71,2.5v5h-1.38V89.87a2.82,2.82,0,0,0-.44-1.76,1.52,1.52,0,0,0-1.27-.55,2.19,2.19,0,0,0-1.22.32,5.73,5.73,0,0,0-.76.57,5.17,5.17,0,0,1,.12,1.2v5Z"></path><path class="cls-4" d="M132.63,89.53a5.66,5.66,0,0,1,0,.75c0,.23-.07.44-.11.63h-4.74a3.21,3.21,0,0,0,.72,2.1,2.29,2.29,0,0,0,1.76.67,3.49,3.49,0,0,0,.84-.09,3.87,3.87,0,0,0,.63-.21,2.21,2.21,0,0,0,.42-.25l.25-.21.41,1-.3.27a2.37,2.37,0,0,1-.51.34,4.33,4.33,0,0,1-.78.28,4.49,4.49,0,0,1-1.11.12,3.54,3.54,0,0,1-2.72-1.06,4.73,4.73,0,0,1-1-3.33,5.5,5.5,0,0,1,.29-1.86,3.55,3.55,0,0,1,.78-1.3,3.3,3.3,0,0,1,1.13-.77,3.58,3.58,0,0,1,1.34-.25,2.53,2.53,0,0,1,2,.82A3.45,3.45,0,0,1,132.63,89.53Zm-2.85-2a1.81,1.81,0,0,0-1.41.6,2.77,2.77,0,0,0-.63,1.73h3.57a1.49,1.49,0,0,0,0-.28V89.3a1.91,1.91,0,0,0-.42-1.33A1.44,1.44,0,0,0,129.78,87.51Z"></path><path class="cls-4" d="M138.82,87.77l-.25-.1a1.49,1.49,0,0,0-.5-.06,2.05,2.05,0,0,0-1.26.39,2,2,0,0,0-.39.38,1.59,1.59,0,0,0-.23.39V94.7h-1.38V86.54h1.27v1.21h0a4.23,4.23,0,0,1,.25-.46,1.95,1.95,0,0,1,1-.77,2.24,2.24,0,0,1,.82-.13,2.63,2.63,0,0,1,.43,0,3,3,0,0,1,.32.09Z"></path><polygon class="cls-2" points="244.24 56.06 244.24 53.13 220.08 53.13 220.08 56.06 244.24 56.06 244.24 56.06"></polygon><path class="cls-2" d="M176.33,54.68a51.16,51.16,0,0,0,50,51.22V3.45A51.16,51.16,0,0,0,176.33,54.68Z"></path><path class="cls-1" d="M223,44.32A59.11,59.11,0,0,0,209.61,6.73l-1.46.56a57.9,57.9,0,0,1-13.83,86.12c.4.33.81.66,1.23,1A59.29,59.29,0,0,0,223,44.32Z"></path><path class="cls-1" d="M207.48,29.88a59.17,59.17,0,0,0-3.91-21.2l-1.32.68A57.91,57.91,0,0,1,181.1,77.44c.23.44.46.88.71,1.32A59.26,59.26,0,0,0,207.48,29.88Z"></path><path class="cls-1" d="M218.63,29.41a56.41,56.41,0,0,1,7.84.55v-1.5a58,58,0,0,0-7.84-.54A58.84,58.84,0,0,0,176.06,46.1c-.13.84-.24,1.69-.33,2.54A57.39,57.39,0,0,1,218.63,29.41Z"></path><path class="cls-1" d="M177.1,41.18c-.13.48-.24,1-.35,1.44A57.78,57.78,0,0,1,223,99.28c0,1.82-.1,3.62-.26,5.4l1.48.07c.16-1.81.26-3.63.26-5.47A59.24,59.24,0,0,0,177.1,41.18Z"></path><path class="cls-1" d="M193.61,15.39c-.4.33-.79.65-1.17,1a57.87,57.87,0,0,1,11,83.17c.45.23.91.45,1.37.66a59.36,59.36,0,0,0-11.16-84.82Z"></path><path class="cls-1" d="M206.66,26.52A3.52,3.52,0,1,0,210.17,30,3.51,3.51,0,0,0,206.66,26.52Z"></path><path class="cls-1" d="M201.66,50a3.52,3.52,0,1,0,3.52,3.51A3.51,3.51,0,0,0,201.66,50Z"></path><path class="cls-1" d="M181.19,39.19a3.52,3.52,0,1,0,3.51,3.52A3.52,3.52,0,0,0,181.19,39.19Z"></path><path class="cls-5" d="M179.41,53.92a46.78,46.78,0,0,0,46.71,46.85h.35V7.08h-.35A46.78,46.78,0,0,0,179.41,53.92Z"></path><path class="cls-1" d="M215.8,66a3.52,3.52,0,1,0,3.51,3.51A3.52,3.52,0,0,0,215.8,66Z"></path><path class="cls-1" d="M226.3,4.05V104.57l1.55,0V4Z"></path><path class="cls-6" d="M226.91,104.64a50.09,50.09,0,0,1,0-100.17H227V.7h-.06a53.86,53.86,0,0,0,0,107.71H227v-3.77Z"></path><path class="cls-6" d="M227.23,104.64a50.09,50.09,0,0,0,0-100.17h0V.7h0a53.86,53.86,0,0,1,0,107.71h0v-3.77Z"></path><path class="cls-1" d="M220.2,25.56a3.52,3.52,0,1,0,3.51,3.52A3.51,3.51,0,0,0,220.2,25.56Z"></path><path class="cls-4" d="M270.81,52h-3.47a26.91,26.91,0,0,0-26.13-26.29v-3.5A30.4,30.4,0,0,1,270.81,52Z"></path><path class="cls-7" d="M263.85,52h-3.48a19.94,19.94,0,0,0-19.16-19.31V29.22A23.42,23.42,0,0,1,263.85,52Z"></path><path class="cls-8" d="M241.21,39.6V36.2A16.46,16.46,0,0,1,256.89,52H253.5A13.08,13.08,0,0,0,241.21,39.6Z"></path><path class="cls-4" d="M270.81,57a30.39,30.39,0,0,1-29.6,29.78V83.28A26.91,26.91,0,0,0,267.34,57Z"></path><path class="cls-7" d="M263.85,57a23.42,23.42,0,0,1-22.64,22.8V76.3A19.94,19.94,0,0,0,260.37,57Z"></path><path class="cls-8" d="M241.21,69.4A13.06,13.06,0,0,0,253.5,57h3.39a16.46,16.46,0,0,1-15.68,15.82V69.4Z"></path><path class="cls-2" d="M246.56,54.56a3.26,3.26,0,1,1-3.26-3.26A3.26,3.26,0,0,1,246.56,54.56Z"></path></g></g></svg> 