<svg id="Logo" xmlns="http://www.w3.org/2000/svg" viewBox="0 0 707.47 113.39"><defs><style>.cls-1{fill:#000;}.cls-2{fill:#000;}.cls-3{fill:#000;}</style></defs><polygon class="cls-1" points="28.34 85.04 28.34 42.52 0 42.52 0 113.39 70.86 113.39 70.86 85.04 28.34 85.04"/><polygon class="cls-2" points="113.3 113.39 85.04 113.39 85.04 85.04 113.39 85.04 113.3 113.39"/><rect class="cls-3" x="42.52" y="42.52" width="28.34" height="28.34"/><rect class="cls-2" width="28.34" height="28.34"/><polygon class="cls-1" points="42.52 0 42.52 28.35 85.04 28.35 85.04 70.87 113.39 70.87 113.3 0 42.52 0"/><path class="cls-2" d="M213.47,261.28v-26h8.79a13.57,13.57,0,0,1,5.46,1,11,11,0,0,1,3.9,2.78A11.7,11.7,0,0,1,234,243.2a16.31,16.31,0,0,1,.77,5,15.57,15.57,0,0,1-.88,5.36,11.85,11.85,0,0,1-2.5,4.11,11,11,0,0,1-3.91,2.63,13.53,13.53,0,0,1-5.17.94Zm18.68-13a13.48,13.48,0,0,0-.66-4.31,9.77,9.77,0,0,0-1.92-3.38,8.72,8.72,0,0,0-3.1-2.22,10.65,10.65,0,0,0-4.21-.78H216V259h6.26a10.39,10.39,0,0,0,4.27-.83,8.62,8.62,0,0,0,3.09-2.27,9.89,9.89,0,0,0,1.89-3.4A13.6,13.6,0,0,0,232.15,248.24Z" transform="translate(-71.23 -221.1)"/><path class="cls-2" d="M257.24,259v2.27H239.77v-26h17.14v2.27H242.3v9.37H255v2.16H242.3V259Z" transform="translate(-71.23 -221.1)"/><path class="cls-2" d="M272.73,259.15a8.1,8.1,0,0,0,4.08-.93,7.29,7.29,0,0,0,2.6-2.45,10,10,0,0,0,1.36-3.47,19.71,19.71,0,0,0,.38-3.91V235.28h2.57v13.11a20.82,20.82,0,0,1-.59,5,11.93,11.93,0,0,1-1.88,4.15,9.37,9.37,0,0,1-3.39,2.86,11.1,11.1,0,0,1-5.09,1.06,10.85,10.85,0,0,1-5.2-1.12,9.28,9.28,0,0,1-3.37-2.95,11.66,11.66,0,0,1-1.83-4.17,20.86,20.86,0,0,1-.55-4.83V235.28h2.52v13.11a19.57,19.57,0,0,0,.41,4,10,10,0,0,0,1.37,3.44,7.4,7.4,0,0,0,2.58,2.42A8.09,8.09,0,0,0,272.73,259.15Z" transform="translate(-71.23 -221.1)"/><path class="cls-2" d="M308.37,237.55H299.1v23.73h-2.56V237.55h-9.27v-2.27h21.1Z" transform="translate(-71.23 -221.1)"/><path class="cls-2" d="M327.3,240.14a7.9,7.9,0,0,0-2.95-2,10.77,10.77,0,0,0-4.15-.77q-3.48,0-5.06,1.3a4.35,4.35,0,0,0-1.57,3.54,3.9,3.9,0,0,0,.42,1.92,3.66,3.66,0,0,0,1.32,1.3,9.34,9.34,0,0,0,2.27,1q1.37.4,3.24.81a34.49,34.49,0,0,1,3.73,1,10.47,10.47,0,0,1,2.83,1.35,5.57,5.57,0,0,1,1.79,2,6.23,6.23,0,0,1,.62,2.95,6.64,6.64,0,0,1-.69,3.11,6.18,6.18,0,0,1-1.94,2.19,8.57,8.57,0,0,1-3,1.31,15.75,15.75,0,0,1-3.74.42A15.28,15.28,0,0,1,310,257.72l1.24-2.08a11.37,11.37,0,0,0,3.85,2.54,13.34,13.34,0,0,0,5.38,1.05,9.07,9.07,0,0,0,4.87-1.12,3.75,3.75,0,0,0,1.76-3.39,4,4,0,0,0-.49-2,4.36,4.36,0,0,0-1.49-1.43,10.42,10.42,0,0,0-2.47-1c-1-.3-2.13-.59-3.43-.88s-2.56-.65-3.59-1a9.42,9.42,0,0,1-2.58-1.28,5.12,5.12,0,0,1-1.57-1.85,5.92,5.92,0,0,1-.53-2.66,7.19,7.19,0,0,1,.68-3.2,6.4,6.4,0,0,1,1.9-2.35,8.69,8.69,0,0,1,2.93-1.42,13.45,13.45,0,0,1,3.75-.5,12.75,12.75,0,0,1,4.6.79,12.32,12.32,0,0,1,3.68,2.21Z" transform="translate(-71.23 -221.1)"/><path class="cls-2" d="M332.76,248.09a13.89,13.89,0,0,1,.82-4.67,13.08,13.08,0,0,1,2.4-4.16,12.56,12.56,0,0,1,3.88-3,11.57,11.57,0,0,1,5.24-1.15A10.78,10.78,0,0,1,351,236.7a10,10,0,0,1,3.66,4.1l-2.05,1.25a8.12,8.12,0,0,0-1.5-2.16,8.29,8.29,0,0,0-1.91-1.43,8,8,0,0,0-2.12-.79,10.18,10.18,0,0,0-2.16-.23,8.6,8.6,0,0,0-4.14.95,9.28,9.28,0,0,0-3,2.49,10.69,10.69,0,0,0-1.85,3.46,12.44,12.44,0,0,0-.63,3.9,11.59,11.59,0,0,0,.75,4.14,12,12,0,0,0,2.06,3.5,9.86,9.86,0,0,0,3.07,2.41,8.44,8.44,0,0,0,3.87.9,9.87,9.87,0,0,0,2.25-.27,9,9,0,0,0,2.23-.88,9.65,9.65,0,0,0,2-1.51,7.69,7.69,0,0,0,1.54-2.18l2.12,1.11a8,8,0,0,1-1.76,2.58,11.57,11.57,0,0,1-2.52,1.88A12.38,12.38,0,0,1,348,261.1a12.61,12.61,0,0,1-3.06.4,10.43,10.43,0,0,1-4.91-1.17,13.06,13.06,0,0,1-3.85-3.06,14.14,14.14,0,0,1-2.5-4.29A13.82,13.82,0,0,1,332.76,248.09Z" transform="translate(-71.23 -221.1)"/><path class="cls-2" d="M380.19,235.28v26h-2.57V249.12H362.21v12.16h-2.53v-26h2.53v11.57h15.41V235.28Z" transform="translate(-71.23 -221.1)"/><path class="cls-2" d="M404.22,259v2.27H386.74v-26h17.14v2.27H389.27v9.37H402v2.16H389.27V259Z" transform="translate(-71.23 -221.1)"/><path class="cls-2" d="M437.4,257.51a11,11,0,0,1-8.32,3.95,10.59,10.59,0,0,1-4.85-1.13,12.83,12.83,0,0,1-3.85-3,14.15,14.15,0,0,1-2.54-4.23,13.3,13.3,0,0,1-.92-4.85,14,14,0,0,1,.9-5,13.59,13.59,0,0,1,2.49-4.2,12,12,0,0,1,3.81-2.89,10.85,10.85,0,0,1,4.82-1.08,13.28,13.28,0,0,1,3.46.42,10.71,10.71,0,0,1,2.78,1.17,8.9,8.9,0,0,1,2.14,1.8,10.45,10.45,0,0,1,1.54,2.29l-2,1.32a8.44,8.44,0,0,0-3.34-3.56,9.53,9.53,0,0,0-4.65-1.13,8.25,8.25,0,0,0-3.9.91,9.48,9.48,0,0,0-3,2.44,10.83,10.83,0,0,0-1.88,3.48,12.59,12.59,0,0,0-.66,4.05,11.67,11.67,0,0,0,.75,4.17,11,11,0,0,0,2.07,3.46,10,10,0,0,0,3.09,2.36,8.56,8.56,0,0,0,3.87.88,9,9,0,0,0,4.24-1,13,13,0,0,0,3.89-3.28v-4.36h-5.75v-2h8v12.78h-2.2Z" transform="translate(-71.23 -221.1)"/><path class="cls-2" d="M462.48,259v2.27H445v-26h17.14v2.27H447.54v9.37h12.75v2.16H447.54V259Z" transform="translate(-71.23 -221.1)"/><path class="cls-2" d="M482.3,240.14a8,8,0,0,0-2.95-2,10.78,10.78,0,0,0-4.16-.77q-3.48,0-5.05,1.3a4.35,4.35,0,0,0-1.57,3.54,3.79,3.79,0,0,0,.42,1.92,3.66,3.66,0,0,0,1.32,1.3,9.25,9.25,0,0,0,2.26,1c.92.27,2,.54,3.25.81a35.12,35.12,0,0,1,3.73,1,10.26,10.26,0,0,1,2.82,1.35,5.69,5.69,0,0,1,1.8,2,6.35,6.35,0,0,1,.62,2.95,6.52,6.52,0,0,1-.7,3.11,6.08,6.08,0,0,1-1.94,2.19,8.61,8.61,0,0,1-3,1.31,15.81,15.81,0,0,1-3.74.42A15.31,15.31,0,0,1,465,257.72l1.25-2.08a11.42,11.42,0,0,0,3.84,2.54,13.39,13.39,0,0,0,5.39,1.05,9.09,9.09,0,0,0,4.87-1.12,3.75,3.75,0,0,0,1.76-3.39,3.89,3.89,0,0,0-.5-2,4.24,4.24,0,0,0-1.48-1.43,10.33,10.33,0,0,0-2.48-1c-1-.3-2.12-.59-3.42-.88s-2.56-.65-3.59-1a9.42,9.42,0,0,1-2.58-1.28,5,5,0,0,1-1.57-1.85,5.92,5.92,0,0,1-.54-2.66,7.33,7.33,0,0,1,.68-3.2,6.42,6.42,0,0,1,1.91-2.35,8.6,8.6,0,0,1,2.93-1.42,13.34,13.34,0,0,1,3.75-.5,12.79,12.79,0,0,1,4.6.79,12.44,12.44,0,0,1,3.68,2.21Z" transform="translate(-71.23 -221.1)"/><path class="cls-2" d="M506.91,259v2.27H489.44v-26h17.14v2.27H492v9.37h12.74v2.16H492V259Z" transform="translate(-71.23 -221.1)"/><path class="cls-2" d="M511.89,261.28v-26h2.53V259h15.05v2.27Z" transform="translate(-71.23 -221.1)"/><path class="cls-2" d="M533.5,261.28v-26H536V259h15.05v2.27Z" transform="translate(-71.23 -221.1)"/><path class="cls-2" d="M570.2,240.14a8,8,0,0,0-3-2,10.78,10.78,0,0,0-4.16-.77q-3.48,0-5.05,1.3a4.35,4.35,0,0,0-1.57,3.54,3.9,3.9,0,0,0,.42,1.92,3.66,3.66,0,0,0,1.32,1.3,9.25,9.25,0,0,0,2.26,1c.92.27,2,.54,3.25.81a34.49,34.49,0,0,1,3.73,1,10.26,10.26,0,0,1,2.82,1.35,5.6,5.6,0,0,1,1.8,2,6.35,6.35,0,0,1,.62,2.95,6.64,6.64,0,0,1-.69,3.11,6.21,6.21,0,0,1-2,2.19,8.52,8.52,0,0,1-3,1.31,15.81,15.81,0,0,1-3.74.42,15.31,15.31,0,0,1-10.44-3.78l1.25-2.08a11.42,11.42,0,0,0,3.84,2.54,13.43,13.43,0,0,0,5.39,1.05,9.09,9.09,0,0,0,4.87-1.12,3.75,3.75,0,0,0,1.76-3.39,3.89,3.89,0,0,0-.5-2,4.24,4.24,0,0,0-1.48-1.43,10.42,10.42,0,0,0-2.47-1c-1-.3-2.13-.59-3.43-.88s-2.56-.65-3.59-1a9.42,9.42,0,0,1-2.58-1.28,5,5,0,0,1-1.57-1.85,5.92,5.92,0,0,1-.53-2.66,7.33,7.33,0,0,1,.67-3.2,6.53,6.53,0,0,1,1.91-2.35,8.6,8.6,0,0,1,2.93-1.42,13.34,13.34,0,0,1,3.75-.5,12.79,12.79,0,0,1,4.6.79,12.44,12.44,0,0,1,3.68,2.21Z" transform="translate(-71.23 -221.1)"/><path class="cls-2" d="M575.66,248.09a13.89,13.89,0,0,1,.82-4.67,13.08,13.08,0,0,1,2.4-4.16,12.44,12.44,0,0,1,3.88-3,11.57,11.57,0,0,1,5.24-1.15,10.73,10.73,0,0,1,5.93,1.57,9.91,9.91,0,0,1,3.67,4.1l-2.05,1.25a7.92,7.92,0,0,0-1.51-2.16,8,8,0,0,0-4-2.22,10,10,0,0,0-2.16-.23,8.66,8.66,0,0,0-4.14.95,9.49,9.49,0,0,0-3,2.49,11.09,11.09,0,0,0-1.85,3.46,12.72,12.72,0,0,0-.62,3.9,11.59,11.59,0,0,0,.75,4.14,11.73,11.73,0,0,0,2,3.5,9.9,9.9,0,0,0,3.08,2.41,8.4,8.4,0,0,0,3.86.9,10,10,0,0,0,2.26-.27,9.16,9.16,0,0,0,2.23-.88,9.92,9.92,0,0,0,2-1.51,7.47,7.47,0,0,0,1.53-2.18l2.13,1.11a8.11,8.11,0,0,1-1.76,2.58,11.63,11.63,0,0,1-2.53,1.88,12.53,12.53,0,0,1-6,1.58,10.41,10.41,0,0,1-4.91-1.17,13.06,13.06,0,0,1-3.85-3.06,14.37,14.37,0,0,1-2.51-4.29A14,14,0,0,1,575.66,248.09Z" transform="translate(-71.23 -221.1)"/><path class="cls-2" d="M623.09,235.28v26h-2.57V249.12H605.11v12.16h-2.53v-26h2.53v11.57h15.41V235.28Z" transform="translate(-71.23 -221.1)"/><path class="cls-2" d="M626.9,261.28l10.87-26h2.09l10.88,26H648l-3.37-8.13H632.94l-3.33,8.13Zm11.93-23-5.34,12.85H644Z" transform="translate(-71.23 -221.1)"/><path class="cls-2" d="M654.51,261.28v-26h17v2.27H657v9.55h12.27v2.13H657v12Z" transform="translate(-71.23 -221.1)"/><path class="cls-2" d="M694.43,237.55h-9.26v23.73H682.6V237.55h-9.26v-2.27h21.09Z" transform="translate(-71.23 -221.1)"/><path class="cls-2" d="M706.81,261.28v-26h17v2.27H709.34v9.55h12.27v2.13H709.34v12Z" transform="translate(-71.23 -221.1)"/><path class="cls-2" d="M738.75,259.15a8.1,8.1,0,0,0,4.08-.93,7.29,7.29,0,0,0,2.6-2.45,10,10,0,0,0,1.36-3.47,19.71,19.71,0,0,0,.38-3.91V235.28h2.57v13.11a20.82,20.82,0,0,1-.59,5,11.93,11.93,0,0,1-1.88,4.15,9.37,9.37,0,0,1-3.39,2.86,11.1,11.1,0,0,1-5.09,1.06,10.85,10.85,0,0,1-5.2-1.12,9.28,9.28,0,0,1-3.37-2.95,11.66,11.66,0,0,1-1.83-4.17,20.86,20.86,0,0,1-.55-4.83V235.28h2.52v13.11a19.57,19.57,0,0,0,.41,4,10,10,0,0,0,1.37,3.44,7.4,7.4,0,0,0,2.58,2.42A8.09,8.09,0,0,0,738.75,259.15ZM735,231.25V227.8h2.13v3.45Zm5.46,0V227.8h2.13v3.45Z" transform="translate(-71.23 -221.1)"/><path class="cls-2" d="M755.89,261.28v-26h11A6.87,6.87,0,0,1,770,236a8.07,8.07,0,0,1,2.45,1.86,8.76,8.76,0,0,1,1.59,2.62,8.16,8.16,0,0,1,.57,3,8.86,8.86,0,0,1-.42,2.73,8.07,8.07,0,0,1-1.19,2.34,7.12,7.12,0,0,1-1.83,1.76,6.33,6.33,0,0,1-2.38,1l6.41,10h-2.9l-6.15-9.6h-7.69v9.6Zm2.53-11.87H767a4.33,4.33,0,0,0,2.07-.49,5.14,5.14,0,0,0,1.6-1.34,6.68,6.68,0,0,0,1-1.9,7,7,0,0,0,.37-2.24,6,6,0,0,0-.43-2.25,6.17,6.17,0,0,0-1.13-1.89,5.44,5.44,0,0,0-1.69-1.28,4.48,4.48,0,0,0-2-.47h-8.31Z" transform="translate(-71.23 -221.1)"/><path class="cls-1" d="M211.54,297a23,23,0,0,1,1.43-7.94,21.7,21.7,0,0,1,4.19-7,21.33,21.33,0,0,1,6.7-5,20.21,20.21,0,0,1,9-1.92,19.75,19.75,0,0,1,10.3,2.63,16.33,16.33,0,0,1,6.51,7l-9.24,6.57a8.29,8.29,0,0,0-1.46-2.67,7.61,7.61,0,0,0-2-1.67,7.5,7.5,0,0,0-2.23-.87,10.33,10.33,0,0,0-2.17-.25,7.31,7.31,0,0,0-3.94,1,8.84,8.84,0,0,0-2.73,2.68,11.53,11.53,0,0,0-1.59,3.72,17.78,17.78,0,0,0-.49,4.13,16,16,0,0,0,.59,4.4,12,12,0,0,0,1.73,3.73,9,9,0,0,0,2.8,2.57,7.27,7.27,0,0,0,3.75,1,8.81,8.81,0,0,0,2.18-.28,7.07,7.07,0,0,0,2.14-.93,7.6,7.6,0,0,0,3.19-4.19l9.87,5.9a12.73,12.73,0,0,1-2.82,4.35,18.36,18.36,0,0,1-4.32,3.22,22.58,22.58,0,0,1-10.49,2.67,18.55,18.55,0,0,1-8.44-2,21.75,21.75,0,0,1-6.61-5.18,24.81,24.81,0,0,1-4.31-7.33A23.43,23.43,0,0,1,211.54,297Z" transform="translate(-71.23 -221.1)"/><path class="cls-1" d="M262,275.35l7.88,19.06,8.06-19.06H291.1l-15.2,29.48v14.59h-12V304.71l-15-29.36Z" transform="translate(-71.23 -221.1)"/><path class="cls-1" d="M331.44,308.12a10.08,10.08,0,0,1-1.24,5.12,10.22,10.22,0,0,1-3.41,3.51,16,16,0,0,1-5.06,2,27.47,27.47,0,0,1-6.12.66H294V275.35h25.57a8.73,8.73,0,0,1,4.16,1,10.46,10.46,0,0,1,3.17,2.57,11.76,11.76,0,0,1,2,3.6,12.22,12.22,0,0,1,.72,4.13,11.94,11.94,0,0,1-1.59,5.93,10,10,0,0,1-4.74,4.25,10.73,10.73,0,0,1,8.19,11.29Zm-25.38-22.46v6.76h8.25a4,4,0,0,0,2.27-.68,3.09,3.09,0,0,0,1-2.73,3.32,3.32,0,0,0-.87-2.58,3,3,0,0,0-2.05-.77Zm13.09,20a4.19,4.19,0,0,0-.87-2.7,2.74,2.74,0,0,0-2.23-1.09h-10v7.39h9.55a3.58,3.58,0,0,0,2.52-.94A3.41,3.41,0,0,0,319.15,305.64Z" transform="translate(-71.23 -221.1)"/><path class="cls-1" d="M368.12,308.87v10.55H336.71V275.35h30.85V285.9H348.82v6.21h16v9.8h-16v7Z" transform="translate(-71.23 -221.1)"/><path class="cls-1" d="M373.76,319.42V275.35H394a13.4,13.4,0,0,1,6,1.34,15.39,15.39,0,0,1,4.69,3.48,16.3,16.3,0,0,1,3.07,4.9,14.78,14.78,0,0,1,1.12,5.55,15.63,15.63,0,0,1-1.68,7.17,14.74,14.74,0,0,1-4.65,5.43l9.93,16.2H398.77l-8.38-13.53h-4.53v13.53Zm12.1-24.08h7.64a2.69,2.69,0,0,0,2.08-1.24,5.58,5.58,0,0,0,1-3.48,5,5,0,0,0-1.12-3.51,3.17,3.17,0,0,0-2.23-1.21h-7.33Z" transform="translate(-71.23 -221.1)"/><path class="cls-1" d="M443,289.75a34.09,34.09,0,0,0-3.85-2,36.26,36.26,0,0,0-3.75-1.4,13.76,13.76,0,0,0-4.07-.65,5.52,5.52,0,0,0-2.57.5,1.72,1.72,0,0,0-1,1.67,2,2,0,0,0,.56,1.43,5.38,5.38,0,0,0,1.62,1,20.27,20.27,0,0,0,2.57.9c1,.29,2.16.64,3.45,1.06a44.92,44.92,0,0,1,5.49,2.05,17.11,17.11,0,0,1,4.19,2.63,10.16,10.16,0,0,1,2.67,3.69,13.41,13.41,0,0,1,.93,5.28,13.91,13.91,0,0,1-1.46,6.67,11.91,11.91,0,0,1-3.85,4.31,16.2,16.2,0,0,1-5.4,2.33,25.85,25.85,0,0,1-6.05.71,33.92,33.92,0,0,1-5-.37,44.12,44.12,0,0,1-5.06-1.05,45,45,0,0,1-4.84-1.62,30.94,30.94,0,0,1-4.32-2.11l5.22-10.61a35.72,35.72,0,0,0,4.53,2.42,31.06,31.06,0,0,0,4.5,1.67,17.77,17.77,0,0,0,5.12.75,5.13,5.13,0,0,0,2.76-.53,1.62,1.62,0,0,0,.78-1.39,2,2,0,0,0-.78-1.58,7,7,0,0,0-2.14-1.15c-.91-.33-2-.67-3.14-1s-2.43-.73-3.75-1.18a31.76,31.76,0,0,1-5-2.15,13.42,13.42,0,0,1-3.47-2.61,9.13,9.13,0,0,1-2-3.31,13.05,13.05,0,0,1-.65-4.28,14.82,14.82,0,0,1,1.33-6.46,13.38,13.38,0,0,1,3.63-4.66,16.37,16.37,0,0,1,5.25-2.81,19.68,19.68,0,0,1,6.23-1,23.69,23.69,0,0,1,4.72.47,37.06,37.06,0,0,1,4.44,1.18,40.21,40.21,0,0,1,4,1.55c1.24.55,2.36,1.08,3.35,1.58Z" transform="translate(-71.23 -221.1)"/><path class="cls-1" d="M454.62,319.42V275.35h12.1v44.07Z" transform="translate(-71.23 -221.1)"/><path class="cls-1" d="M471.88,297a23,23,0,0,1,1.42-7.94,21.7,21.7,0,0,1,4.19-7,21.37,21.37,0,0,1,6.71-5,20.17,20.17,0,0,1,9-1.92,19.72,19.72,0,0,1,10.3,2.63,16.41,16.41,0,0,1,6.52,7l-9.25,6.57a8.29,8.29,0,0,0-1.46-2.67,7.58,7.58,0,0,0-1.95-1.67,7.72,7.72,0,0,0-2.23-.87,10.35,10.35,0,0,0-2.18-.25,7.34,7.34,0,0,0-3.94,1,8.94,8.94,0,0,0-2.73,2.68,11.52,11.52,0,0,0-1.58,3.72,17.8,17.8,0,0,0-.5,4.13,16.4,16.4,0,0,0,.59,4.4,12,12,0,0,0,1.74,3.73,9,9,0,0,0,2.79,2.57,7.33,7.33,0,0,0,3.76,1,8.74,8.74,0,0,0,2.17-.28,7,7,0,0,0,2.14-.93,7.68,7.68,0,0,0,1.86-1.67,8,8,0,0,0,1.34-2.52l9.86,5.9a12.73,12.73,0,0,1-2.82,4.35,18.31,18.31,0,0,1-4.31,3.22,22.58,22.58,0,0,1-10.49,2.67,18.52,18.52,0,0,1-8.44-2,21.51,21.51,0,0,1-6.61-5.18,24.6,24.6,0,0,1-4.31-7.33A23.21,23.21,0,0,1,471.88,297Z" transform="translate(-71.23 -221.1)"/><path class="cls-1" d="M553.92,275.35v44.07h-12.1V302.17H527v17.25h-12.1V275.35H527v16.27h14.78V275.35Z" transform="translate(-71.23 -221.1)"/><path class="cls-1" d="M592.89,308.87v10.55h-31.4V275.35h30.84V285.9H573.59v6.21h16v9.8h-16v7Z" transform="translate(-71.23 -221.1)"/><path class="cls-1" d="M598.54,319.42V275.35h20.23a13.4,13.4,0,0,1,6,1.34,15.22,15.22,0,0,1,4.68,3.48,15.92,15.92,0,0,1,3.07,4.9,14.59,14.59,0,0,1,1.12,5.55,15.75,15.75,0,0,1-1.67,7.17,14.67,14.67,0,0,1-4.66,5.43l9.93,16.2H623.55l-8.38-13.53h-4.53v13.53Zm12.1-24.08h7.63a2.66,2.66,0,0,0,2.08-1.24,5.58,5.58,0,0,0,1-3.48,5,5,0,0,0-1.11-3.51A3.17,3.17,0,0,0,618,285.9h-7.32Z" transform="translate(-71.23 -221.1)"/><path class="cls-1" d="M680.08,275.35v44.07H668V302.17H653.21v17.25h-12.1V275.35h12.1v16.27H668V275.35Z" transform="translate(-71.23 -221.1)"/><path class="cls-1" d="M719.06,308.87v10.55H687.65V275.35H718.5V285.9H699.76v6.21h16v9.8h-16v7Z" transform="translate(-71.23 -221.1)"/><path class="cls-1" d="M724.7,319.42V275.35h12.1v44.07Z" transform="translate(-71.23 -221.1)"/><path class="cls-1" d="M778.69,285.9H766v33.52h-12.1V285.9H741.21V275.35h37.48Z" transform="translate(-71.23 -221.1)"/></svg>