<?xml version="1.0" encoding="UTF-8"?> <svg xmlns="http://www.w3.org/2000/svg" viewBox="0 0 421.68 171.65"><defs><style>.cls-1{fill:#3a6fb6;}.cls-2{fill:#a0a09f;}.cls-3{fill:#fff;}.cls-4{fill:#262626;}.cls-5{fill:#93b7e2;}.cls-6{fill:#696969;}</style></defs><title>Hanova-Logo-Neu-Negativ_1@250x</title><g id="Ebene_2" data-name="Ebene 2"><g id="Ebene_2-2" data-name="Ebene 2"><path class="cls-1" d="M82.62,144.83a10.43,10.43,0,0,1-6.08-6,15.17,15.17,0,0,1-12.26,5.47c-10.23,0-14.81-5.64-14.81-13.4,0-10.32,7.75-15.52,22-15.52h3V113c0-5.12-.89-7.85-6.18-7.85-5.73,0-11.9,4.06-13.31,5.11l-4.32-7c6.7-4.23,12.26-6.09,19-6.09,7,0,11.64,2.56,13.58,7.41.79,1.94.79,4.32.7,10.93l-.17,12.79c-.09,6,.44,7.94,3.88,10.32ZM72.57,121.9c-9.7,0-12.61,2.82-12.61,8.47,0,4.23,2.29,6.88,6.17,6.88a10.06,10.06,0,0,0,8-4.68L74.33,122C74.15,122,73.18,121.9,72.57,121.9Z"></path><path class="cls-1" d="M119.11,143V113.35c0-6.08-1.41-7.76-5.12-7.76-2.82,0-6.87,2.12-9.78,5V143H94.68v-32.8c0-4.68-.44-7.41-1.67-10.59l8.82-2.46a13.07,13.07,0,0,1,1.58,6.34c4.76-4,8.91-6.17,13.67-6.17,6.88,0,11.64,4.15,11.64,12.35V143Z"></path><path class="cls-1" d="M155.13,144.12c-12.08,0-19.67-9.08-19.67-23.36S143.13,97.3,155,97.3c12.7,0,19.93,9.44,19.93,23.55C174.88,135.22,167.2,144.12,155.13,144.12Zm-.09-39.5c-6.18,0-8.82,4.67-8.82,15.52,0,13,3.26,16.75,9.08,16.75s8.91-4.67,8.91-15.87C164.21,108.41,160.68,104.62,155,104.62Z"></path><path class="cls-1" d="M200.8,143.15h-8.55L176.2,98.71l10-1.41,7.76,24.07c1.06,3.27,2.21,7.76,2.74,10h.17A83.62,83.62,0,0,1,199.48,121l7.4-22.66H217Z"></path><path class="cls-1" d="M251.06,144.83a10.43,10.43,0,0,1-6.08-6,15.17,15.17,0,0,1-12.26,5.47c-10.23,0-14.81-5.64-14.81-13.4,0-10.32,7.76-15.52,22-15.52h3V113c0-5.12-.88-7.85-6.17-7.85-5.74,0-11.91,4.06-13.32,5.11l-4.32-7c6.7-4.23,12.26-6.09,19-6.09,7,0,11.64,2.56,13.58,7.41.79,1.94.79,4.32.7,10.93l-.17,12.79c-.09,6,.44,7.94,3.88,10.32ZM241,121.9c-9.7,0-12.61,2.82-12.61,8.47,0,4.23,2.29,6.88,6.17,6.88a10.08,10.08,0,0,0,8-4.68l.17-10.58C242.6,122,241.62,121.9,241,121.9Z"></path><path class="cls-2" d="M300.48,94.57H286.2V143h-16V94.57H256v-13h46.38Z"></path><path class="cls-2" d="M312.91,125.08c0,2.82,1,8.29,7.32,8.29,4,0,8-1.5,12-4.59l5.91,8.82c-6.09,4.67-11.73,6.52-18.52,6.52-14.55,0-22.57-8.9-22.57-23.63,0-15,7.85-24.16,20.72-24.16,14.55,0,20.55,9.17,20.55,24.6v4.15Zm10.23-10.85c0-4.5-1.32-7.23-4.85-7.23-3.26,0-5.38,2-5.38,8.11h10.23Z"></path><path class="cls-2" d="M362.78,144.12c-12.7,0-20.64-8-20.64-23.45,0-15.26,8.11-24.34,21.78-24.34,5.64,0,9.52,1.68,14,5.38L370.89,111c-1.77-1.85-4.32-3.35-6.44-3.35-3.61,0-5.55,1.94-5.55,12.08,0,9.26,1,13,5.37,13a11.14,11.14,0,0,0,8.38-4.06l6.44,9A22.33,22.33,0,0,1,362.78,144.12Z"></path><path class="cls-2" d="M406.33,143V113.09c0-3.71-.17-4.77-3.44-4.77-1.94,0-4.14,1.5-5.37,2.83V143H382.17V92.1c0-3.26-.26-8.29-1.14-11.29l15.52-2.64a50.86,50.86,0,0,1,1,10.67v7.23c0,1.85-.09,2.73-.09,3.7,2.29-2.11,5.64-3.44,10.58-3.44,7.05,0,13.67,2.29,13.67,13.32V143Z"></path><path class="cls-1" d="M30.86,143V114.76H10.05V143H0V82H10.05v24.51H30.86V82H41.09v61Z"></path><path class="cls-3" d="M55.44,171.55c-1.34,0-2.28-.08-3.16-.06V158c1,0,2.46-.06,3.78-.06,4.44,0,7,2.14,7,6.7S59.86,171.55,55.44,171.55ZM55.9,159c-.78,0-1.76,0-2.34.06v11.32a18.13,18.13,0,0,0,2.06.14c3.6,0,6.08-1.78,6.08-5.78C61.7,160.87,59.7,159,55.9,159Z"></path><path class="cls-3" d="M74.76,171.49V158H76v13.5Z"></path><path class="cls-3" d="M98.22,159.61a10,10,0,0,0-3.6-.72c-2.9,0-5.58,1.88-5.58,5.88,0,3.74,2.24,5.8,5.48,5.8a9.13,9.13,0,0,0,2.86-.44v-5.38h1.28v6.16a13.2,13.2,0,0,1-4.34.74c-4,0-6.64-2.44-6.64-6.66a6.76,6.76,0,0,1,7.1-7.16,12,12,0,0,1,3.64.56Z"></path><path class="cls-3" d="M111.14,171.49V158h1.28v13.5Z"></path><path class="cls-3" d="M128.94,159.05v12.44h-1.28V159.05h-4.18V158h9.64v1.06Z"></path><path class="cls-3" d="M152.62,171.49l-1.22-3.44h-6.22l-1.26,3.44h-1.34l5.08-13.5H149l5.06,13.5Zm-3.72-10.2a16.71,16.71,0,0,1-.6-1.94h0c-.18.64-.38,1.26-.62,1.9L145.54,167H151Z"></path><path class="cls-3" d="M165.1,171.49V158h1.28v12.44h5.16v1.06Z"></path><path class="cls-3" d="M182.36,171.49V158H189v1h-5.38v5h5.12v1h-5.12v5.4H189v1.06Z"></path><path class="cls-3" d="M214.4,171.49V158h1.28v12.44h5.16v1.06Z"></path><path class="cls-3" d="M236.62,171.65c-4,0-5.92-2.72-5.92-6.78,0-4.54,2.84-7,6.26-7,3.7,0,5.94,2.48,5.94,6.78C242.9,169.13,240.06,171.65,236.62,171.65Zm.18-12.74c-2.52,0-4.72,2.06-4.72,5.7s1.54,5.94,4.7,5.94c2.5,0,4.74-2,4.74-5.72S239.76,158.91,236.8,158.91Zm-1.92-2.36a.84.84,0,0,1-.86-.86.83.83,0,0,1,.86-.86.84.84,0,0,1,.86.86A.85.85,0,0,1,234.88,156.55Zm3.68,0a.85.85,0,0,1-.86-.86.86.86,0,1,1,1.72,0A.85.85,0,0,1,238.56,156.55Z"></path><path class="cls-3" d="M256.68,171.65a9.9,9.9,0,0,1-2.72-.34L254,170a8.78,8.78,0,0,0,2.76.5c1.82,0,3.38-.74,3.38-2.7,0-3.34-6.4-2.14-6.4-6.34,0-2.1,1.7-3.66,4.58-3.66a13.41,13.41,0,0,1,2.42.24l-.08,1.2a8.4,8.4,0,0,0-2.44-.38c-2.06,0-3.18,1-3.18,2.46,0,3.26,6.42,2.08,6.42,6.3C261.5,170,259.66,171.65,256.68,171.65Z"></path><path class="cls-3" d="M278.3,171.65c-4.16,0-4.92-2.34-4.92-4.6V158h1.28v8.92c0,2,.68,3.7,3.76,3.7,2.58,0,3.88-1.08,3.88-4.1V158h1.26v8.4C283.56,169.81,281.8,171.65,278.3,171.65Z"></path><path class="cls-3" d="M304.86,171.49l-6-9.44a28.55,28.55,0,0,1-1.58-2.72c.06,1.6.14,5.66.14,8.18v4h-1.28V158h1.74l5.9,9.28c.58.92,1.14,1.88,1.66,2.82-.06-1.9-.14-5.88-.14-8.5V158h1.28v13.5Z"></path><path class="cls-3" d="M328.78,159.61a10,10,0,0,0-3.6-.72c-2.9,0-5.58,1.88-5.58,5.88,0,3.74,2.24,5.8,5.48,5.8a9.13,9.13,0,0,0,2.86-.44v-5.38h1.28v6.16a13.2,13.2,0,0,1-4.34.74c-4,0-6.64-2.44-6.64-6.66a6.76,6.76,0,0,1,7.1-7.16,12,12,0,0,1,3.64.56Z"></path><path class="cls-3" d="M341.7,171.49V158h6.66v1H343v5h5.12v1H343v5.4h5.38v1.06Z"></path><path class="cls-3" d="M369.32,171.49l-6-9.44a28.55,28.55,0,0,1-1.58-2.72c.06,1.6.14,5.66.14,8.18v4h-1.28V158h1.74l5.9,9.28c.58.92,1.14,1.88,1.66,2.82-.06-1.9-.14-5.88-.14-8.5V158h1.28v13.5Z"></path><polygon class="cls-1" points="223.63 18.91 208.71 18.91 202.4 12.6 202.4 6.55 204.41 4.54 201.46 1.59 198.52 4.54 200.53 6.55 200.53 12.6 193.29 19.84 201.46 28.01 208.71 20.77 223.63 20.77 234.64 31.79 246.59 19.84 234.64 7.89 223.63 18.91"></polygon><rect class="cls-2" x="204.73" y="78.12" width="2.6" height="2.6" transform="translate(4.19 168.95) rotate(-45)"></rect><rect class="cls-4" x="205.73" y="48.75" width="3.47" height="3.47" transform="translate(25.07 161.49) rotate(-45)"></rect><rect class="cls-4" x="228.54" y="56" width="5.68" height="5.68" transform="translate(26.17 180.84) rotate(-45)"></rect><rect class="cls-4" x="177.09" y="19.29" width="2.32" height="2.32" transform="translate(37.74 132.03) rotate(-45)"></rect><rect class="cls-5" x="223.04" y="27.25" width="2.32" height="2.32" transform="translate(45.58 166.86) rotate(-45)"></rect><polygon class="cls-6" points="243.49 49.61 243.7 53.97 239.64 58.03 244.59 62.99 249.55 58.03 245.57 54.06 245.37 49.7 246.9 48.16 244.47 45.74 242.05 48.17 243.49 49.61"></polygon><polygon class="cls-4" points="181.87 49.94 177.46 45.53 172.11 50.87 177.46 56.22 181.87 51.8 192.38 51.81 196.07 55.5 195.95 62.82 188.4 70.37 196.9 78.86 205.39 70.37 197.81 62.79 197.93 55.47 202.53 50.88 196.98 45.34 192.38 49.95 181.87 49.94"></polygon><rect class="cls-4" x="190.35" y="7.76" width="5.6" height="5.6" transform="translate(49.11 139.67) rotate(-45)"></rect><polygon class="cls-2" points="194.88 40 196.98 42.11 198.16 40.94 205.05 40.94 207.51 43.39 210.9 40 207.51 36.61 205.05 39.07 198.16 39.07 196.98 37.9 194.88 40"></polygon><polygon class="cls-6" points="224.92 66.64 227.02 68.75 228.2 67.58 235.09 67.58 237.55 70.03 240.94 66.64 237.55 63.25 235.09 65.71 228.2 65.71 227.02 64.54 224.92 66.64"></polygon><rect class="cls-4" x="243.45" y="27.98" width="6.6" height="6.6" transform="translate(50.16 183.64) rotate(-45)"></rect><rect class="cls-4" x="235.81" y="33.56" width="3.74" height="3.74" transform="translate(44.56 178.44) rotate(-45)"></rect><rect class="cls-2" x="179.6" y="60.04" width="7.03" height="7.03" transform="translate(8.69 148.1) rotate(-45)"></rect><rect class="cls-5" x="204.28" y="63.06" width="5.77" height="5.77" transform="translate(14.05 165.8) rotate(-45)"></rect><rect class="cls-1" x="188.16" y="56.24" width="2.32" height="2.32" transform="translate(14.87 150.68) rotate(-45)"></rect><rect class="cls-2" x="219.74" y="13.2" width="2.32" height="2.32" transform="translate(54.54 160.4) rotate(-45)"></rect><rect class="cls-4" x="220.33" y="49.43" width="2.32" height="2.32" transform="translate(29.1 171.44) rotate(-45)"></rect><rect class="cls-2" x="218.91" y="64.02" width="2.32" height="2.32" transform="translate(18.37 174.7) rotate(-45)"></rect><polygon class="cls-2" points="226.25 6.26 219.39 6.26 213.13 0 205.93 7.2 213.13 14.39 219.39 8.13 226.25 8.13 228.35 10.22 231.38 7.2 228.35 4.17 226.25 6.26"></polygon><rect class="cls-5" x="208.25" y="23.68" width="4.2" height="4.2" transform="translate(43.38 156.29) rotate(-45)"></rect><rect class="cls-6" x="233.68" y="48.41" width="5.19" height="5.19" transform="translate(33.14 182.01) rotate(-45)"></rect><polygon class="cls-2" points="209.21 34.35 213.42 38.56 213.42 50.46 206.89 56.99 214.35 64.45 221.81 56.99 215.28 50.46 215.28 38.56 220.42 33.42 214.35 27.35 209.22 32.49 197.28 32.54 185.85 21.11 185.85 14.04 187.38 12.52 184.92 10.06 182.47 12.52 183.99 14.04 183.99 21.11 171.63 33.47 184.92 46.75 197.27 34.4 209.21 34.35"></polygon><polygon class="cls-1" points="223.16 73.72 217.5 68.06 210.91 74.66 217.5 81.25 223.16 75.59 228.85 75.59 230.42 77.16 232.93 74.66 230.42 72.15 228.85 73.72 223.16 73.72"></polygon><polygon class="cls-6" points="236.39 40.61 228.1 32.31 218.86 41.54 228.1 50.78 236.4 42.47 248.85 42.51 250.15 43.81 252.39 41.58 250.15 39.34 248.84 40.65 236.39 40.61"></polygon></g></g></svg> 