<?xml version="1.0" encoding="UTF-8"?>
<svg id="Layer_2" data-name="Layer 2" xmlns="http://www.w3.org/2000/svg" viewBox="0 0 1061.29 130.6">
  <defs>
    <style>
      .cls-1 {
        stroke-width: 0px;
      }
    </style>
  </defs>
  <g id="Layer_1-2" data-name="Layer 1">
    <g>
      <g>
        <path class="cls-1" d="m247.79,28.83v72.95h-16.67v-29.7h-49.71v29.7h-16.67V28.83h16.67v28.66h49.71v-28.66h16.67Z"/>
        <path class="cls-1" d="m324.91,86.35h-44.08l-7.82,15.42h-17.82l38.66-72.95h18.24l38.66,72.95h-18.03l-7.82-15.42Zm-6.98-13.55l-15.11-29.7-15.11,29.7h30.22Z"/>
        <path class="cls-1" d="m441.1,28.83v72.95h-14.59l-52.31-52.73v52.73h-16.15V28.83h17.72l49.19,50.02V28.83h16.15Z"/>
        <path class="cls-1" d="m453.41,65.3c0-24.38,17.93-38.77,46.37-38.77s46.37,14.38,46.37,38.77-17.92,38.77-46.37,38.77-46.37-14.38-46.37-38.77Zm75.76,0c0-15.63-11.36-24.38-29.39-24.38s-29.39,8.75-29.39,24.38,11.25,24.39,29.39,24.39,29.39-8.75,29.39-24.39Z"/>
        <path class="cls-1" d="m563.67,28.83l27.51,56.38,27.41-56.38h18.03l-36.79,72.95h-17.61l-36.78-72.95h18.24Z"/>
        <path class="cls-1" d="m694.98,86.35h-44.08l-7.81,15.42h-17.82l38.66-72.95h18.24l38.66,72.95h-18.03l-7.82-15.42Zm-6.98-13.55l-15.11-29.7-15.11,29.7h30.22Z"/>
        <path class="cls-1" d="m798.25,36.75h-34.49v65.03h-8.75V36.75h-34.39v-7.92h77.64v7.92Z"/>
        <path class="cls-1" d="m880.58,93.65v8.13h-70.55V28.83h69.51v8.13h-60.75v23.65h51.48v8.13h-51.48v24.91h61.8Z"/>
        <path class="cls-1" d="m961.45,81.87l8.34,4.17c-6.88,10.94-19.59,17.93-37.41,17.93-27.2,0-43.87-15.01-43.87-38.66s16.67-38.66,44.18-38.66c17.51,0,30.22,7.09,37.1,17.92l-8.34,4.17c-5.73-9.69-16.15-13.96-28.87-13.96-21.16,0-35.12,10.42-35.12,30.53s13.96,30.53,35.12,30.53c12.71,0,23.24-4.17,28.87-13.96Z"/>
        <path class="cls-1" d="m1061.29,28.83v72.95h-8.75v-32.83h-60.02v32.83h-8.75V28.83h8.75v31.78h60.02v-31.78h8.75Z"/>
      </g>
      <g>
        <path class="cls-1" d="m0,59.69C2.78,26.83,29.89.92,63.24,0c-3.37,8.29-7.78,16.05-13.06,23.13-1.9,2.53-3.9,4.97-6.02,7.32-11.84,13.2-27,23.38-44.16,29.24Z"/>
        <path class="cls-1" d="m75.35,48.31l-16.19-16.19c7.24-9.36,13.08-19.84,17.25-31.15,7.66,1.33,14.86,4,21.36,7.77-5.31,14.46-12.94,27.8-22.41,39.57Z"/>
        <path class="cls-1" d="m41.69,78.52c-10.74,6.89-22.49,12.37-34.97,16.14-3.38-6.69-5.63-14.03-6.52-21.79,20.59-6.23,38.8-17.97,52.89-33.5l16.08,16.09c-5.95,6.46-12.5,12.36-19.58,17.6-2.57,1.91-5.2,3.73-7.9,5.45Z"/>
        <path class="cls-1" d="m66.37,103.19c-10.54,7.42-21.92,13.69-34,18.65-7.24-4.19-13.6-9.74-18.74-16.28,13.25-4.33,25.7-10.43,37.08-18.02l15.66,15.66Z"/>
        <path class="cls-1" d="m74.01,97.49l-15.51-15.51c22.07-16.8,39.43-39.48,49.77-65.69,6.21,5.5,11.38,12.15,15.14,19.63-11.59,24.13-28.59,45.18-49.4,61.58Z"/>
        <path class="cls-1" d="m130.38,65.3c0,36.07-29.24,65.31-65.32,65.31-6.1,0-11.99-.83-17.59-2.4,9.66-4.69,18.85-10.19,27.49-16.42,2.58-1.85,5.11-3.78,7.59-5.76,18.75-15.01,34.53-33.55,46.34-54.63.98,4.48,1.49,9.14,1.49,13.9Z"/>
      </g>
    </g>
  </g>
</svg>