<?xml version="1.0" encoding="UTF-8"?> <svg xmlns="http://www.w3.org/2000/svg" viewBox="0 0 80.75 81.25"><defs><style>.cls-1{fill:#3a6fb6;}.cls-2{fill:#878787;}.cls-3{fill:#3c3c3b;}.cls-4{fill:#575756;}.cls-5{fill:#93b7e2;}</style></defs><title>Logo-Element-NEU@250x</title><g id="Ebene_2" data-name="Ebene 2"><g id="Ebene_2-2" data-name="Ebene 2"><polygon class="cls-1" points="51.99 18.91 37.07 18.91 30.76 12.6 30.76 6.55 32.77 4.54 29.83 1.59 26.88 4.54 28.9 6.55 28.9 12.6 21.65 19.84 29.83 28.01 37.07 20.77 51.99 20.77 63.01 31.79 74.96 19.84 63.01 7.89 51.99 18.91"></polygon><rect class="cls-2" x="33.1" y="78.12" width="2.6" height="2.6" transform="translate(-46.08 47.58) rotate(-45)"></rect><rect class="cls-3" x="34.1" y="48.75" width="3.47" height="3.47" transform="translate(-25.2 40.12) rotate(-45)"></rect><rect class="cls-4" x="56.9" y="56" width="5.68" height="5.68" transform="translate(-24.1 59.48) rotate(-45)"></rect><rect class="cls-3" x="5.45" y="19.29" width="2.32" height="2.32" transform="translate(-12.53 10.67) rotate(-45)"></rect><rect class="cls-5" x="51.41" y="27.25" width="2.32" height="2.32" transform="translate(-4.69 45.49) rotate(-45)"></rect><polygon class="cls-4" points="71.86 49.61 72.07 53.97 68 58.03 72.96 62.99 77.92 58.03 73.94 54.06 73.73 49.7 75.27 48.16 72.84 45.74 70.41 48.17 71.86 49.61"></polygon><polygon class="cls-3" points="10.23 49.94 5.82 45.53 0.48 50.87 5.82 56.22 10.23 51.8 20.74 51.81 24.43 55.5 24.31 62.82 16.77 70.37 25.26 78.86 33.76 70.37 26.18 62.79 26.3 55.47 30.89 50.88 25.35 45.34 20.74 49.95 10.23 49.94"></polygon><rect class="cls-2" x="18.72" y="7.76" width="5.6" height="5.6" transform="translate(-1.16 18.31) rotate(-45)"></rect><polygon class="cls-2" points="23.24 40 25.35 42.11 26.52 40.94 33.42 40.94 35.88 43.39 39.27 40 35.88 36.61 33.42 39.07 26.52 39.07 25.35 37.9 23.24 40"></polygon><polygon class="cls-4" points="53.28 66.64 55.39 68.75 56.56 67.58 63.46 67.58 65.92 70.03 69.31 66.64 65.92 63.25 63.46 65.71 56.56 65.71 55.39 64.54 53.28 66.64"></polygon><rect class="cls-5" x="71.82" y="27.98" width="6.6" height="6.6" transform="translate(-0.11 62.28) rotate(-45)"></rect><rect class="cls-5" x="64.18" y="33.56" width="3.74" height="3.74" transform="translate(-5.71 57.08) rotate(-45)"></rect><rect class="cls-2" x="7.97" y="60.04" width="7.03" height="7.03" transform="translate(-41.58 26.73) rotate(-45)"></rect><rect class="cls-5" x="32.64" y="63.06" width="5.77" height="5.77" transform="translate(-36.22 44.44) rotate(-45)"></rect><rect class="cls-1" x="16.53" y="56.24" width="2.32" height="2.32" transform="translate(-35.4 29.32) rotate(-45)"></rect><rect class="cls-2" x="48.1" y="13.2" width="2.32" height="2.32" transform="translate(4.27 39.04) rotate(-45)"></rect><rect class="cls-2" x="48.7" y="49.43" width="2.32" height="2.32" transform="translate(-21.17 50.08) rotate(-45)"></rect><rect class="cls-2" x="47.28" y="64.02" width="2.32" height="2.32" transform="translate(-31.9 53.34) rotate(-45)"></rect><polygon class="cls-2" points="54.62 6.26 47.76 6.26 41.49 0 34.3 7.2 41.49 14.39 47.76 8.13 54.62 8.13 56.72 10.22 59.75 7.2 56.72 4.17 54.62 6.26"></polygon><rect class="cls-5" x="36.62" y="23.68" width="4.2" height="4.2" transform="translate(-6.89 34.93) rotate(-45)"></rect><rect class="cls-4" x="62.05" y="48.41" width="5.19" height="5.19" transform="translate(-17.13 60.65) rotate(-45)"></rect><polygon class="cls-2" points="37.57 34.35 41.78 38.56 41.78 50.46 35.25 56.99 42.71 64.45 50.18 56.99 43.65 50.46 43.65 38.56 48.79 33.42 42.72 27.35 37.58 32.49 25.65 32.54 14.22 21.11 14.22 14.04 15.74 12.52 13.29 10.06 10.84 12.52 12.36 14.04 12.36 21.11 0 33.47 13.29 46.75 25.64 34.4 37.57 34.35"></polygon><polygon class="cls-1" points="51.52 73.72 45.87 68.06 39.28 74.66 45.87 81.25 51.52 75.59 57.22 75.59 58.79 77.16 61.29 74.66 58.79 72.15 57.22 73.72 51.52 73.72"></polygon><polygon class="cls-4" points="64.76 40.61 56.46 32.31 47.23 41.54 56.46 50.78 64.77 42.47 77.22 42.51 78.52 43.81 80.75 41.58 78.52 39.34 77.21 40.65 64.76 40.61"></polygon></g></g></svg> 