<?xml version="1.0" encoding="UTF-8"?>
<svg id="Layer_2" data-name="Layer 2" xmlns="http://www.w3.org/2000/svg" viewBox="0 0 332.66 333.24">
  <defs>
    <style>
      .cls-1 {
        stroke-width: 0px;
      }
    </style>
  </defs>
  <g id="Layer_1-2" data-name="Layer 1">
    <g>
      <path class="cls-1" d="m0,152.3C7.08,68.45,76.26,2.35,161.35,0c-8.59,21.16-19.86,40.96-33.33,59.02-4.85,6.44-9.96,12.69-15.36,18.67C82.45,111.36,43.78,137.34,0,152.3Z"/>
      <path class="cls-1" d="m192.27,123.26l-41.31-41.31c18.46-23.89,33.39-50.63,44.01-79.49,19.54,3.4,37.91,10.22,54.49,19.83-13.56,36.9-33.01,70.92-57.19,100.97Z"/>
      <path class="cls-1" d="m106.37,200.34c-27.41,17.59-57.39,31.56-89.24,41.19C8.51,224.47,2.76,205.74.49,185.94c52.55-15.91,99-45.84,134.96-85.47l41.02,41.05c-15.18,16.49-31.9,31.53-49.96,44.91-6.56,4.88-13.27,9.52-20.15,13.91Z"/>
      <path class="cls-1" d="m169.34,263.31c-26.88,18.93-55.94,34.92-86.74,47.58-18.46-10.68-34.69-24.85-47.81-41.54,33.82-11.06,65.58-26.62,94.61-45.98l39.95,39.95Z"/>
      <path class="cls-1" d="m188.85,248.77l-39.57-39.57c56.32-42.88,100.62-100.74,126.98-167.62,15.85,14.02,29.03,31.01,38.64,50.08-29.58,61.57-72.95,115.28-126.05,157.12Z"/>
      <path class="cls-1" d="m332.66,166.61c0,92.03-74.61,166.64-166.67,166.64-15.56,0-30.6-2.12-44.88-6.13,24.65-11.96,48.1-26.01,70.14-41.89,6.59-4.73,13.03-9.64,19.36-14.69,47.84-38.29,88.11-85.61,118.24-139.41,2.5,11.44,3.8,23.31,3.8,35.48Z"/>
    </g>
  </g>
</svg>