<?xml version="1.0" encoding="UTF-8"?><svg id="Ebene_1" xmlns="http://www.w3.org/2000/svg" viewBox="0 0 416.196 112.8"><defs><style>.cls-1{fill:#000404;}.cls-2{fill:#cb1114;}.cls-3{fill:#1a1a18;}.cls-4{fill:#9ba3a7;}.cls-5{fill:#9aa1a6;}</style></defs><polygon class="cls-1" points="28.198 84.602 28.198 42.302 0 42.302 0 112.8 70.499 112.8 70.499 84.602 28.198 84.602"/><polygon class="cls-4" points="112.718 112.799 84.601 112.799 84.601 84.601 112.8 84.601 112.718 112.799"/><rect class="cls-2" x="42.301" y="42.302" width="28.198" height="28.198"/><rect class="cls-4" x="0" y=".004" width="28.198" height="28.197"/><polygon class="cls-1" points="42.301 0 42.301 28.2 84.599 28.2 84.599 70.498 112.797 70.498 112.715 0 42.301 0"/><path class="cls-3" d="m140.792,91.061V21.641h25.911c5.735,0,10.756.913,15.058,2.737,4.302,1.826,7.902,4.302,10.803,7.431,2.9,3.129,5.085,6.795,6.551,11,1.467,4.205,2.2,8.687,2.2,13.445,0,5.28-.816,10.056-2.444,14.324-1.631,4.27-3.96,7.919-6.992,10.951-3.03,3.03-6.682,5.378-10.951,7.04-4.27,1.663-9.012,2.493-14.226,2.493h-25.911Zm44.196-34.808c0-3.064-.408-5.85-1.223-8.36-.816-2.509-2.004-4.677-3.569-6.502-1.565-1.823-3.487-3.227-5.769-4.204-2.283-.977-4.856-1.467-7.724-1.467h-9.876v41.262h9.876c2.934,0,5.539-.522,7.822-1.565,2.28-1.042,4.187-2.493,5.72-4.351,1.53-1.858,2.704-4.04,3.52-6.55.815-2.509,1.223-5.264,1.223-8.262Z"/><path class="cls-3" d="m241.404,91.551c-5.085,0-9.746-.993-13.982-2.983-4.238-1.987-7.888-4.628-10.951-7.92-3.065-3.29-5.444-7.089-7.139-11.391s-2.541-8.766-2.541-13.395c0-4.433.781-8.735,2.346-12.907,1.565-4.171,3.813-7.871,6.746-11.098,2.934-3.227,6.502-5.818,10.706-7.773,4.204-1.956,8.947-2.934,14.226-2.934,5.996,0,11.26,1.256,15.791,3.764,4.53,2.51,8.131,6.048,10.805,10.61l-12.712,9.973c-.39-.651-.962-1.548-1.711-2.689-.75-1.139-1.711-2.248-2.884-3.324-1.172-1.076-2.607-2.021-4.302-2.835s-3.651-1.223-5.866-1.223c-2.739,0-5.167.603-7.285,1.809-2.119,1.207-3.879,2.786-5.28,4.742-1.402,1.955-2.461,4.189-3.178,6.697-.718,2.51-1.076,5.069-1.076,7.675,0,2.413.325,4.857.977,7.334.651,2.478,1.663,4.727,3.032,6.746,1.369,2.021,3.112,3.667,5.231,4.938,2.118,1.272,4.611,1.907,7.48,1.907,1.824,0,3.552-.276,5.183-.831,1.628-.553,3.095-1.286,4.399-2.2,1.304-.912,2.411-1.955,3.325-3.129.912-1.174,1.596-2.411,2.053-3.716h-13.102v-14.079h30.507v7.138c0,4.172-.75,8.149-2.249,11.929-1.5,3.781-3.602,7.089-6.307,9.924s-5.948,5.085-9.728,6.746c-3.782,1.662-7.954,2.493-12.515,2.493Z"/><path class="cls-3" d="m276.896,55.764c0-4.171.781-8.326,2.346-12.466,1.565-4.138,3.845-7.838,6.845-11.098,2.997-3.259,6.648-5.898,10.951-7.92,4.302-2.02,9.191-3.03,14.667-3.03,6.518,0,12.173,1.402,16.965,4.204,4.79,2.803,8.359,6.453,10.706,10.951l-12.32,8.604c-.782-1.824-1.777-3.339-2.981-4.546-1.207-1.206-2.528-2.183-3.96-2.934-1.434-.749-2.901-1.271-4.4-1.565-1.5-.293-2.967-.439-4.4-.439-3.064,0-5.737.62-8.017,1.858-2.283,1.238-4.173,2.835-5.671,4.79-1.5,1.956-2.608,4.173-3.325,6.648-.718,2.479-1.076,4.988-1.076,7.529,0,2.739.424,5.378,1.271,7.92.847,2.542,2.069,4.792,3.667,6.746,1.597,1.956,3.52,3.505,5.769,4.644,2.249,1.141,4.774,1.712,7.578,1.712,1.433,0,2.916-.179,4.448-.538,1.531-.358,2.998-.912,4.4-1.662,1.401-.749,2.688-1.726,3.862-2.934,1.174-1.206,2.118-2.689,2.835-4.449l13.103,7.725c-1.044,2.542-2.591,4.824-4.644,6.845-2.054,2.021-4.417,3.715-7.09,5.083-2.673,1.37-5.508,2.413-8.506,3.13-2.999.717-5.932,1.076-8.799,1.076-5.02,0-9.631-1.028-13.835-3.081-4.205-2.053-7.823-4.774-10.854-8.164-3.032-3.388-5.378-7.236-7.04-11.538-1.663-4.302-2.493-8.668-2.493-13.102Z"/><path class="cls-5" d="m362.983,51.566h3.996l15.25,37.334h-5.048l-4.416-10.936h-15.67l-4.364,10.936h-5.048l15.3-37.334Zm8.729,22.716l-6.731-17.248-6.94,17.248h13.672Z"/><path class="cls-5" d="m412.199,83.851c-3.295,3.542-7.081,5.311-11.358,5.311-2.49,0-4.794-.542-6.915-1.631-2.121-1.086-3.951-2.515-5.493-4.285-1.544-1.771-2.762-3.794-3.656-6.074s-1.34-4.627-1.34-7.047c0-2.524.438-4.915,1.315-7.176.876-2.261,2.085-4.259,3.627-5.994s3.384-3.112,5.522-4.128c2.137-1.016,4.45-1.526,6.94-1.526,3.611,0,6.582.755,8.913,2.261,2.33,1.508,4.11,3.47,5.337,5.89l-3.629,2.524c-1.122-2.173-2.611-3.785-4.468-4.838-1.859-1.052-3.944-1.578-6.257-1.578-1.894,0-3.611.413-5.153,1.236-1.544.825-2.858,1.912-3.944,3.261s-1.928,2.91-2.524,4.679c-.596,1.771-.894,3.602-.894,5.495,0,1.998.333,3.883.998,5.652.667,1.771,1.578,3.331,2.735,4.679,1.157,1.351,2.524,2.411,4.101,3.182,1.578.771,3.295,1.157,5.153,1.157,4.066,0,7.729-1.962,10.991-5.89v-5.153h-8.045v-3.575h12.041v18.614h-3.996v-5.048Z"/></svg>