<?xml version="1.0" standalone="no"?>
<!DOCTYPE svg PUBLIC "-//W3C//DTD SVG 20010904//EN"
 "http://www.w3.org/TR/2001/REC-SVG-20010904/DTD/svg10.dtd">
<svg version="1.0" xmlns="http://www.w3.org/2000/svg"
 width="334.000000pt" height="334.000000pt" viewBox="0 0 334.000000 334.000000"
 preserveAspectRatio="xMidYMid meet">
<metadata>
Created by potrace 1.14, written by Peter Selinger 2001-2017
</metadata>
<g transform="translate(0.000000,334.000000) scale(0.100000,-0.100000)"
fill="#000000" stroke="none">
<path d="M1433 3323 c-364 -52 -687 -215 -948 -478 -136 -136 -226 -262 -309
-430 -87 -176 -141 -348 -161 -515 -3 -25 -8 -55 -11 -67 l-4 -23 77 29 c198
74 369 162 552 285 143 96 146 98 280 216 210 184 386 395 530 633 45 75 181
345 181 360 0 8 -95 3 -187 -10z"/>
<path d="M1925 3238 c-35 -93 -148 -319 -209 -423 -55 -91 -171 -261 -186
-270 -6 -3 -10 -12 -10 -19 0 -14 396 -416 410 -416 20 0 228 302 327 477 88
155 243 492 243 529 0 9 -190 97 -268 125 -93 32 -230 69 -260 69 -14 0 -25
-17 -47 -72z"/>
<path d="M2731 2837 c-81 -196 -222 -459 -345 -642 -63 -95 -224 -310 -272
-365 -124 -142 -259 -279 -374 -380 -47 -41 -87 -77 -90 -81 -3 -3 -38 -31
-77 -63 -40 -32 -73 -60 -73 -61 0 -2 88 -91 196 -199 135 -135 201 -193 210
-188 33 19 250 211 359 318 298 295 551 623 741 959 21 39 44 79 51 90 30 53
93 188 93 200 0 22 -92 172 -159 260 -58 75 -208 235 -220 235 -3 0 -21 -38
-40 -83z"/>
<path d="M1255 2229 c-324 -328 -735 -582 -1178 -729 l-68 -22 6 -46 c18 -130
62 -287 121 -425 19 -45 36 -83 38 -84 4 -5 166 50 291 99 428 168 838 437
1185 775 l125 122 -205 205 c-113 114 -207 206 -210 206 -3 0 -50 -46 -105
-101z"/>
<path d="M3277 1998 c-8 -12 -42 -70 -77 -128 -290 -480 -662 -896 -1160
-1293 -166 -133 -521 -357 -735 -464 -95 -48 -97 -53 -17 -68 15 -2 38 -7 52
-10 145 -29 325 -37 495 -22 314 28 659 173 905 382 83 70 220 219 282 306
258 362 362 812 288 1253 -5 32 -11 61 -14 63 -2 3 -11 -6 -19 -19z"/>
<path d="M1275 1091 c-6 -5 -62 -41 -125 -79 -217 -131 -437 -236 -672 -322
l-127 -46 42 -50 c98 -116 263 -259 385 -334 l53 -32 57 23 c168 66 500 245
701 376 l114 75 -199 199 c-109 109 -204 199 -209 199 -6 0 -15 -4 -20 -9z"/>
</g>
</svg>
