<?xml version="1.0" standalone="no"?>
<!DOCTYPE svg PUBLIC "-//W3C//DTD SVG 20010904//EN"
 "http://www.w3.org/TR/2001/REC-SVG-20010904/DTD/svg10.dtd">
<svg version="1.0" xmlns="http://www.w3.org/2000/svg"
 width="700.000000pt" height="700.000000pt" viewBox="0 0 700.000000 700.000000"
 preserveAspectRatio="xMidYMid meet">
<metadata>
Created by potrace 1.14, written by Peter Selinger 2001-2017
</metadata>
<g transform="translate(0.000000,700.000000) scale(0.100000,-0.100000)"
fill="#000000" stroke="none">
<path d="M3285 6690 l-310 -310 310 -310 310 -310 273 270 274 270 296 0 297
0 90 -90 90 -90 128 124 c70 69 127 129 127 135 0 6 -57 67 -127 136 l-127
126 -91 -91 -90 -90 -297 0 -296 0 -241 238 c-132 130 -255 252 -273 269 l-34
33 -309 -310z"/>
<path d="M2458 6734 l-128 -126 88 -86 87 -86 0 -261 1 -260 -316 -312 -315
-312 295 -291 c162 -160 322 -318 356 -351 l61 -61 314 311 314 311 646 0 645
0 479 -475 479 -474 459 457 c252 251 484 483 516 515 l57 59 -514 511 c-282
282 -515 513 -516 515 -2 1 -218 -212 -482 -473 l-479 -475 -645 0 -645 0
-274 273 -274 272 -2 250 c0 175 3 256 11 270 6 11 46 55 88 97 l77 76 -126
126 c-69 69 -127 126 -128 126 -1 0 -59 -57 -129 -126z"/>
<path d="M1700 6266 c-90 -90 -165 -167 -167 -172 -2 -5 72 -84 165 -177 l167
-167 172 170 173 170 -163 161 c-89 88 -167 165 -172 169 -7 6 -72 -52 -175
-154z"/>
<path d="M1042 6026 l-102 -104 65 -64 65 -65 0 -306 0 -306 -535 -532 -535
-533 572 -568 c315 -312 577 -568 581 -568 5 0 247 237 538 528 l530 527 517
3 517 3 183 -180 182 -180 0 -133 c1 -73 1 -305 1 -515 l-1 -381 -282 -281
-283 -281 324 -322 323 -321 177 176 c97 96 242 241 324 322 l147 146 -282
279 -283 280 -1 512 -1 513 223 223 223 223 -224 222 c-123 122 -241 239 -263
260 l-40 39 -223 -221 -224 -221 -210 0 c-115 0 -348 -1 -516 -2 l-305 -2
-497 493 -496 493 1 302 0 301 66 68 67 67 -105 105 c-58 58 -107 105 -110
104 -3 0 -51 -47 -108 -103z"/>
<path d="M4196 5831 l-68 -68 72 -71 72 -70 69 71 70 71 -68 68 c-37 37 -70
68 -73 68 -3 0 -36 -31 -74 -69z"/>
<path d="M502 5307 l-71 -72 70 -69 70 -69 72 71 71 71 -70 70 -70 70 -72 -72z"/>
<path d="M3226 4905 l-127 -125 125 -125 c69 -69 129 -125 133 -125 5 0 64 56
133 125 l125 125 -127 125 c-69 69 -128 125 -130 125 -2 0 -62 -56 -132 -125z"/>
<path d="M6307 4502 l-197 -197 198 -198 c108 -108 201 -197 205 -197 4 0 97
89 206 197 l199 198 -199 197 c-110 109 -203 198 -207 198 -4 0 -96 -89 -205
-198z"/>
<path d="M4485 4620 l-69 -70 70 -69 71 -70 71 72 72 72 -68 68 c-38 37 -71
67 -73 67 -3 0 -36 -31 -74 -70z"/>
<path d="M4490 3815 l-395 -395 397 -395 c218 -217 399 -395 402 -395 3 0 166
160 363 355 l358 355 539 -1 540 -1 32 -31 c17 -18 43 -43 58 -56 l25 -24 96
95 96 94 -98 97 -97 97 -56 -54 -55 -55 -75 -2 c-41 0 -284 0 -540 0 l-465 1
-355 355 c-195 195 -359 354 -365 355 -5 0 -188 -178 -405 -395z"/>
<path d="M5606 4059 l-109 -110 114 -115 114 -114 110 109 c60 60 111 113 112
118 3 9 -212 223 -224 222 -4 0 -57 -50 -117 -110z"/>
<path d="M3002 3738 l-102 -103 -300 -1 -299 0 -48 48 c-26 26 -50 48 -53 48
-6 0 -133 -122 -164 -158 l-19 -22 90 -89 90 -90 49 50 49 49 302 2 301 1 106
-105 107 -106 145 145 146 145 -33 35 c-64 67 -250 248 -257 251 -4 1 -53 -44
-110 -100z"/>
<path d="M1998 2895 c-108 -107 -202 -195 -210 -196 -7 0 -213 -1 -457 -1
l-443 -1 -187 187 c-102 102 -191 186 -196 186 -12 0 -455 -441 -455 -453 0
-7 446 -457 454 -457 1 0 88 85 193 189 l189 188 457 -1 457 -1 159 -159 159
-158 -3 -142 c-2 -77 -4 -218 -4 -313 l-1 -172 -328 -326 -328 -326 363 -362
c200 -199 368 -362 373 -362 11 0 730 714 730 724 0 4 -147 152 -326 330
l-325 322 5 267 c3 147 5 289 5 315 l1 48 195 194 c107 106 195 197 195 202 0
8 -463 473 -471 473 -2 0 -93 -88 -201 -195z"/>
<path d="M6210 2955 l-105 -105 62 -62 62 -63 6 -120 c3 -66 8 -149 10 -185
l4 -65 -177 -178 -177 -177 210 -210 c116 -115 215 -210 220 -209 6 0 105 94
220 209 l210 210 -173 173 -172 173 -5 104 c-3 58 -7 141 -10 185 l-4 80 67
68 67 67 -105 105 -105 105 -105 -105z"/>
<path d="M5452 2770 c-84 -82 -153 -155 -155 -160 -1 -6 68 -80 153 -165 l155
-155 157 157 c152 152 156 157 140 177 -9 12 -80 83 -157 159 l-141 137 -152
-150z"/>
<path d="M3000 2755 l-105 -105 105 -105 106 -106 107 107 106 107 -106 103
c-58 57 -106 104 -107 104 -1 0 -48 -47 -106 -105z"/>
<path d="M4248 2710 l-68 -68 72 -72 71 -71 71 70 71 71 -70 70 c-38 38 -72
70 -75 69 -3 0 -35 -31 -72 -69z"/>
<path d="M5004 2101 l-172 -170 170 -168 c93 -92 171 -170 174 -173 5 -4 344
331 344 341 0 7 -327 333 -337 336 -5 2 -85 -73 -179 -166z"/>
<path d="M1462 2125 l-72 -72 69 -66 c38 -37 72 -67 77 -67 9 0 134 126 134
135 0 4 -31 38 -68 75 l-68 68 -72 -73z"/>
<path d="M782 1741 c-117 -115 -212 -212 -212 -215 0 -4 95 -101 211 -216 208
-206 212 -210 232 -193 46 40 407 403 407 409 0 6 -419 424 -424 424 -1 0 -97
-94 -214 -209z"/>
<path d="M2900 1494 l-174 -175 177 -177 177 -177 177 177 177 177 -176 175
c-97 97 -178 176 -180 175 -2 0 -82 -79 -178 -175z"/>
<path d="M5610 1445 l-105 -105 -301 0 -300 0 -51 50 -51 50 -92 -92 -92 -91
92 -90 92 -89 51 50 52 50 298 0 299 0 105 -105 c91 -90 107 -102 121 -91 31
26 272 271 272 277 0 3 -64 70 -143 149 l-142 142 -105 -105z"/>
<path d="M4160 1486 c-19 -18 -50 -49 -68 -68 l-33 -35 66 -66 c37 -37 70 -67
74 -67 3 0 37 30 74 68 l67 68 -68 67 c-37 37 -70 67 -72 67 -3 0 -21 -16 -40
-34z"/>
<path d="M3688 850 l-283 -280 285 -285 285 -285 245 244 245 244 247 0 248 0
68 -69 68 -68 108 108 109 109 -107 107 c-121 120 -103 117 -191 28 l-52 -53
-249 0 -249 0 -240 240 c-132 132 -243 240 -247 240 -4 0 -134 -126 -290 -280z"/>
<path d="M2900 235 l-76 -76 57 -57 c31 -31 67 -67 81 -79 l24 -23 78 79 78
79 -76 76 c-43 42 -80 76 -84 76 -4 0 -41 -34 -82 -75z"/>
</g>
</svg>
